solid OpenSCAD_Model
  facet normal 0 0 -1
    outer loop
      vertex -25.9 -44.1 -2.5
      vertex -28.4 -44.1 -2.5
      vertex -25.9 -44 -2.5
    endloop
  endfacet
  facet normal 0 0 -1
    outer loop
      vertex 16 -17 -2.5
      vertex 22.5 -1.25 -2.5
      vertex 24 -17 -2.5
    endloop
  endfacet
  facet normal 0 0 -1
    outer loop
      vertex -16 -17 -2.5
      vertex 16 -17 -2.5
      vertex -16 -25 -2.5
    endloop
  endfacet
  facet normal 0 0 -1
    outer loop
      vertex 16 -17 -2.5
      vertex -16 -17 -2.5
      vertex 22.5 -1.25 -2.5
    endloop
  endfacet
  facet normal 0 0 -1
    outer loop
      vertex -16 -17 -2.5
      vertex -22.5 -1.25 -2.5
      vertex 22.5 -1.25 -2.5
    endloop
  endfacet
  facet normal 0 0 -1
    outer loop
      vertex -24 -17 -2.5
      vertex -22.5 -1.25 -2.5
      vertex -16 -17 -2.5
    endloop
  endfacet
  facet normal 0 0 -1
    outer loop
      vertex -28.4 2.4 -2.5
      vertex -22.5 -1.25 -2.5
      vertex -24 -17 -2.5
    endloop
  endfacet
  facet normal -0 0 -1
    outer loop
      vertex -24 -25 -2.5
      vertex -28.4 -44.1 -2.5
      vertex -24 -17 -2.5
    endloop
  endfacet
  facet normal 0 0 -1
    outer loop
      vertex -28.4 2.4 -2.5
      vertex -24 -17 -2.5
      vertex -28.4 -44.1 -2.5
    endloop
  endfacet
  facet normal 0 0 -1
    outer loop
      vertex -22.5 -1.25 -2.5
      vertex -28.4 2.4 -2.5
      vertex -22.5 2.4 -2.5
    endloop
  endfacet
  facet normal 0 0 -1
    outer loop
      vertex 25.9 -44 -2.5
      vertex 16 -25 -2.5
      vertex 24 -25 -2.5
    endloop
  endfacet
  facet normal 0 0 -1
    outer loop
      vertex 16 -25 -2.5
      vertex -16 -25 -2.5
      vertex 16 -17 -2.5
    endloop
  endfacet
  facet normal 0 0 -1
    outer loop
      vertex 25.9 -44 -2.5
      vertex -16 -25 -2.5
      vertex 16 -25 -2.5
    endloop
  endfacet
  facet normal 0 0 -1
    outer loop
      vertex -25.9 -44 -2.5
      vertex -16 -25 -2.5
      vertex 25.9 -44 -2.5
    endloop
  endfacet
  facet normal 0 0 -1
    outer loop
      vertex -28.4 -44.1 -2.5
      vertex -24 -25 -2.5
      vertex -25.9 -44 -2.5
    endloop
  endfacet
  facet normal -0 0 -1
    outer loop
      vertex -16 -25 -2.5
      vertex -25.9 -44 -2.5
      vertex -24 -25 -2.5
    endloop
  endfacet
  facet normal 0 0 -1
    outer loop
      vertex 25.9 -44 -2.5
      vertex 28.4 -44.1 -2.5
      vertex 25.9 -44.1 -2.5
    endloop
  endfacet
  facet normal 0 0 -1
    outer loop
      vertex 24 -25 -2.5
      vertex 28.4 -44.1 -2.5
      vertex 25.9 -44 -2.5
    endloop
  endfacet
  facet normal 0 0 -1
    outer loop
      vertex 28.4 -44.1 -2.5
      vertex 24 -25 -2.5
      vertex 28.4 2.4 -2.5
    endloop
  endfacet
  facet normal 0 0 -1
    outer loop
      vertex 24 -17 -2.5
      vertex 28.4 2.4 -2.5
      vertex 24 -25 -2.5
    endloop
  endfacet
  facet normal 0 0 -1
    outer loop
      vertex 22.5 -1.25 -2.5
      vertex 28.4 2.4 -2.5
      vertex 24 -17 -2.5
    endloop
  endfacet
  facet normal -0 0 -1
    outer loop
      vertex 28.4 2.4 -2.5
      vertex 22.5 -1.25 -2.5
      vertex 22.5 2.4 -2.5
    endloop
  endfacet
  facet normal 0 -1 0
    outer loop
      vertex -25.9 -0.0999994 1.22464e-17
      vertex -22.5 -0.0999994 3.7
      vertex -25.9 -0.0999994 3.7
    endloop
  endfacet
  facet normal 0 -1 -0
    outer loop
      vertex -22.5 -0.0999994 3.7
      vertex -25.9 -0.0999994 1.22464e-17
      vertex -22.5 -0.0999994 1.22464e-17
    endloop
  endfacet
  facet normal 0 -1 0
    outer loop
      vertex 22.5 -0.0999994 1.22464e-17
      vertex 25.9 -0.0999994 3.7
      vertex 22.5 -0.0999994 3.7
    endloop
  endfacet
  facet normal 0 -1 -0
    outer loop
      vertex 25.9 -0.0999994 3.7
      vertex 22.5 -0.0999994 1.22464e-17
      vertex 25.9 -0.0999994 1.22464e-17
    endloop
  endfacet
  facet normal 0 0 1
    outer loop
      vertex 28.4 2.4 3.7
      vertex 25.9 -0.0999994 3.7
      vertex 28.4 -44.1 3.7
    endloop
  endfacet
  facet normal -0 0 1
    outer loop
      vertex 22.5 2.4 3.7
      vertex 25.9 -0.0999994 3.7
      vertex 28.4 2.4 3.7
    endloop
  endfacet
  facet normal 0 0 1
    outer loop
      vertex 25.9 -0.0999994 3.7
      vertex 22.5 2.4 3.7
      vertex 22.5 -0.0999994 3.7
    endloop
  endfacet
  facet normal 0 0 1
    outer loop
      vertex 28.4 -44.1 3.7
      vertex 25.9 -0.0999994 3.7
      vertex 25.9 -44.1 3.7
    endloop
  endfacet
  facet normal 0 0 1
    outer loop
      vertex -22.5 2.4 3.7
      vertex -25.9 -0.0999994 3.7
      vertex -22.5 -0.0999994 3.7
    endloop
  endfacet
  facet normal -0 0 1
    outer loop
      vertex -28.4 2.4 3.7
      vertex -25.9 -0.0999994 3.7
      vertex -22.5 2.4 3.7
    endloop
  endfacet
  facet normal 0 0 1
    outer loop
      vertex -28.4 -44.1 3.7
      vertex -25.9 -0.0999994 3.7
      vertex -28.4 2.4 3.7
    endloop
  endfacet
  facet normal 0 0 1
    outer loop
      vertex -25.9 -0.0999994 3.7
      vertex -28.4 -44.1 3.7
      vertex -25.9 -44.1 3.7
    endloop
  endfacet
  facet normal 0 1 -0
    outer loop
      vertex 28.4 2.4 -2.5
      vertex 22.5 2.4 3.7
      vertex 28.4 2.4 3.7
    endloop
  endfacet
  facet normal 0 1 0
    outer loop
      vertex 22.5 2.4 3.7
      vertex 28.4 2.4 -2.5
      vertex 22.5 2.4 -2.5
    endloop
  endfacet
  facet normal 0 1 -0
    outer loop
      vertex -22.5 2.4 -2.5
      vertex -28.4 2.4 3.7
      vertex -22.5 2.4 3.7
    endloop
  endfacet
  facet normal 0 1 0
    outer loop
      vertex -28.4 2.4 3.7
      vertex -22.5 2.4 -2.5
      vertex -28.4 2.4 -2.5
    endloop
  endfacet
  facet normal -1 0 0
    outer loop
      vertex -28.4 -44.1 -2.5
      vertex -28.4 2.4 3.7
      vertex -28.4 2.4 -2.5
    endloop
  endfacet
  facet normal -1 -0 0
    outer loop
      vertex -28.4 2.4 3.7
      vertex -28.4 -44.1 -2.5
      vertex -28.4 -44.1 3.7
    endloop
  endfacet
  facet normal 1 0 0
    outer loop
      vertex -25.9 -0.0999994 3.7
      vertex -25.9 -44 5.38845e-15
      vertex -25.9 -0.0999994 1.22464e-17
    endloop
  endfacet
  facet normal 1 -0 0
    outer loop
      vertex -25.9 -44.1 3.7
      vertex -25.9 -44 5.38845e-15
      vertex -25.9 -0.0999994 3.7
    endloop
  endfacet
  facet normal 1 0 0
    outer loop
      vertex -25.9 -44.1 -2.5
      vertex -25.9 -44 5.38845e-15
      vertex -25.9 -44.1 3.7
    endloop
  endfacet
  facet normal 1 0 0
    outer loop
      vertex -25.9 -44 5.38845e-15
      vertex -25.9 -44.1 -2.5
      vertex -25.9 -44 -2.5
    endloop
  endfacet
  facet normal 0 -1 0
    outer loop
      vertex -28.4 -44.1 -2.5
      vertex -25.9 -44.1 3.7
      vertex -28.4 -44.1 3.7
    endloop
  endfacet
  facet normal 0 -1 -0
    outer loop
      vertex -25.9 -44.1 3.7
      vertex -28.4 -44.1 -2.5
      vertex -25.9 -44.1 -2.5
    endloop
  endfacet
  facet normal -1 0 0
    outer loop
      vertex 25.9 -44 -2.5
      vertex 25.9 -44.1 -2.5
      vertex 25.9 -44 5.38845e-15
    endloop
  endfacet
  facet normal -1 0 0
    outer loop
      vertex 25.9 -44 5.38845e-15
      vertex 25.9 -0.0999994 3.7
      vertex 25.9 -0.0999994 1.22464e-17
    endloop
  endfacet
  facet normal -1 0 0
    outer loop
      vertex 25.9 -44 5.38845e-15
      vertex 25.9 -44.1 3.7
      vertex 25.9 -0.0999994 3.7
    endloop
  endfacet
  facet normal -1 0 0
    outer loop
      vertex 25.9 -44.1 3.7
      vertex 25.9 -44 5.38845e-15
      vertex 25.9 -44.1 -2.5
    endloop
  endfacet
  facet normal 1 -0 0
    outer loop
      vertex 28.4 -44.1 3.7
      vertex 28.4 2.4 -2.5
      vertex 28.4 2.4 3.7
    endloop
  endfacet
  facet normal 1 0 0
    outer loop
      vertex 28.4 2.4 -2.5
      vertex 28.4 -44.1 3.7
      vertex 28.4 -44.1 -2.5
    endloop
  endfacet
  facet normal 0 -1 0
    outer loop
      vertex 25.9 -44.1 -2.5
      vertex 28.4 -44.1 3.7
      vertex 25.9 -44.1 3.7
    endloop
  endfacet
  facet normal 0 -1 -0
    outer loop
      vertex 28.4 -44.1 3.7
      vertex 25.9 -44.1 -2.5
      vertex 28.4 -44.1 -2.5
    endloop
  endfacet
  facet normal -0 1.22465e-16 1
    outer loop
      vertex -25.9 -0.0999994 1.22464e-17
      vertex -22.5 -1.25 1.53081e-16
      vertex -22.5 -0.0999994 1.22464e-17
    endloop
  endfacet
  facet normal -2.21634e-22 1.22465e-16 1
    outer loop
      vertex -24 -17 2.0819e-15
      vertex -25.9 -0.0999994 1.22464e-17
      vertex -24 -25 3.06162e-15
    endloop
  endfacet
  facet normal 1.40544e-24 1.22465e-16 1
    outer loop
      vertex -22.5 -1.25 1.53081e-16
      vertex -25.9 -0.0999994 1.22464e-17
      vertex -24 -17 2.0819e-15
    endloop
  endfacet
  facet normal -0 1.22465e-16 1
    outer loop
      vertex -10 -27.8 3.40452e-15
      vertex -6.8 -28.8 3.52698e-15
      vertex -6.8 -27.8 3.40452e-15
    endloop
  endfacet
  facet normal 0 1.22465e-16 1
    outer loop
      vertex -6.8 -28.8 3.52698e-15
      vertex -10 -27.8 3.40452e-15
      vertex -10 -28.8 3.52698e-15
    endloop
  endfacet
  facet normal -0 1.22464e-16 1
    outer loop
      vertex -10 -23.6 2.89017e-15
      vertex -6.8 -24.6 3.01263e-15
      vertex -6.8 -23.6 2.89017e-15
    endloop
  endfacet
  facet normal 0 1.22464e-16 1
    outer loop
      vertex -6.8 -24.6 3.01263e-15
      vertex -10 -23.6 2.89017e-15
      vertex -10 -24.6 3.01263e-15
    endloop
  endfacet
  facet normal -0 1.22465e-16 1
    outer loop
      vertex -10 -19.4 2.37581e-15
      vertex -6.8 -20.4 2.49828e-15
      vertex -6.8 -19.4 2.37581e-15
    endloop
  endfacet
  facet normal 0 1.22465e-16 1
    outer loop
      vertex -6.8 -20.4 2.49828e-15
      vertex -10 -19.4 2.37581e-15
      vertex -10 -20.4 2.49828e-15
    endloop
  endfacet
  facet normal -0 1.22465e-16 1
    outer loop
      vertex -10 -15.2 1.86146e-15
      vertex -6.8 -16.2 1.98393e-15
      vertex -6.8 -15.2 1.86146e-15
    endloop
  endfacet
  facet normal 0 1.22465e-16 1
    outer loop
      vertex -6.8 -16.2 1.98393e-15
      vertex -10 -15.2 1.86146e-15
      vertex -10 -16.2 1.98393e-15
    endloop
  endfacet
  facet normal -0 1.22465e-16 1
    outer loop
      vertex -5.8 -27.8 3.40452e-15
      vertex -2.6 -28.8 3.52698e-15
      vertex -2.6 -27.8 3.40452e-15
    endloop
  endfacet
  facet normal 0 1.22465e-16 1
    outer loop
      vertex -2.6 -28.8 3.52698e-15
      vertex -5.8 -27.8 3.40452e-15
      vertex -5.8 -28.8 3.52698e-15
    endloop
  endfacet
  facet normal -0 1.22464e-16 1
    outer loop
      vertex -5.8 -23.6 2.89017e-15
      vertex -2.6 -24.6 3.01263e-15
      vertex -2.6 -23.6 2.89017e-15
    endloop
  endfacet
  facet normal 0 1.22464e-16 1
    outer loop
      vertex -2.6 -24.6 3.01263e-15
      vertex -5.8 -23.6 2.89017e-15
      vertex -5.8 -24.6 3.01263e-15
    endloop
  endfacet
  facet normal -0 1.22465e-16 1
    outer loop
      vertex -5.8 -19.4 2.37581e-15
      vertex -2.6 -20.4 2.49828e-15
      vertex -2.6 -19.4 2.37581e-15
    endloop
  endfacet
  facet normal 0 1.22465e-16 1
    outer loop
      vertex -2.6 -20.4 2.49828e-15
      vertex -5.8 -19.4 2.37581e-15
      vertex -5.8 -20.4 2.49828e-15
    endloop
  endfacet
  facet normal -0 1.22465e-16 1
    outer loop
      vertex -5.8 -15.2 1.86146e-15
      vertex -2.6 -16.2 1.98393e-15
      vertex -2.6 -15.2 1.86146e-15
    endloop
  endfacet
  facet normal 0 1.22465e-16 1
    outer loop
      vertex -2.6 -16.2 1.98393e-15
      vertex -5.8 -15.2 1.86146e-15
      vertex -5.8 -16.2 1.98393e-15
    endloop
  endfacet
  facet normal -0 1.22465e-16 1
    outer loop
      vertex -1.6 -27.8 3.40452e-15
      vertex 1.6 -28.8 3.52698e-15
      vertex 1.6 -27.8 3.40452e-15
    endloop
  endfacet
  facet normal 0 1.22465e-16 1
    outer loop
      vertex 1.6 -28.8 3.52698e-15
      vertex -1.6 -27.8 3.40452e-15
      vertex -1.6 -28.8 3.52698e-15
    endloop
  endfacet
  facet normal -0 1.22464e-16 1
    outer loop
      vertex -1.6 -23.6 2.89017e-15
      vertex 1.6 -24.6 3.01263e-15
      vertex 1.6 -23.6 2.89017e-15
    endloop
  endfacet
  facet normal 0 1.22464e-16 1
    outer loop
      vertex 1.6 -24.6 3.01263e-15
      vertex -1.6 -23.6 2.89017e-15
      vertex -1.6 -24.6 3.01263e-15
    endloop
  endfacet
  facet normal -0 1.22465e-16 1
    outer loop
      vertex -1.6 -19.4 2.37581e-15
      vertex 1.6 -20.4 2.49828e-15
      vertex 1.6 -19.4 2.37581e-15
    endloop
  endfacet
  facet normal 0 1.22465e-16 1
    outer loop
      vertex 1.6 -20.4 2.49828e-15
      vertex -1.6 -19.4 2.37581e-15
      vertex -1.6 -20.4 2.49828e-15
    endloop
  endfacet
  facet normal -0 1.22465e-16 1
    outer loop
      vertex -1.6 -15.2 1.86146e-15
      vertex 1.6 -16.2 1.98393e-15
      vertex 1.6 -15.2 1.86146e-15
    endloop
  endfacet
  facet normal 0 1.22465e-16 1
    outer loop
      vertex 1.6 -16.2 1.98393e-15
      vertex -1.6 -15.2 1.86146e-15
      vertex -1.6 -16.2 1.98393e-15
    endloop
  endfacet
  facet normal -0 1.22465e-16 1
    outer loop
      vertex 2.6 -27.8 3.40452e-15
      vertex 5.8 -28.8 3.52698e-15
      vertex 5.8 -27.8 3.40452e-15
    endloop
  endfacet
  facet normal 0 1.22465e-16 1
    outer loop
      vertex 5.8 -28.8 3.52698e-15
      vertex 2.6 -27.8 3.40452e-15
      vertex 2.6 -28.8 3.52698e-15
    endloop
  endfacet
  facet normal -0 1.22464e-16 1
    outer loop
      vertex 2.6 -23.6 2.89017e-15
      vertex 5.8 -24.6 3.01263e-15
      vertex 5.8 -23.6 2.89017e-15
    endloop
  endfacet
  facet normal 0 1.22464e-16 1
    outer loop
      vertex 5.8 -24.6 3.01263e-15
      vertex 2.6 -23.6 2.89017e-15
      vertex 2.6 -24.6 3.01263e-15
    endloop
  endfacet
  facet normal -0 1.22465e-16 1
    outer loop
      vertex 2.6 -19.4 2.37581e-15
      vertex 5.8 -20.4 2.49828e-15
      vertex 5.8 -19.4 2.37581e-15
    endloop
  endfacet
  facet normal 0 1.22465e-16 1
    outer loop
      vertex 5.8 -20.4 2.49828e-15
      vertex 2.6 -19.4 2.37581e-15
      vertex 2.6 -20.4 2.49828e-15
    endloop
  endfacet
  facet normal -0 1.22465e-16 1
    outer loop
      vertex 2.6 -15.2 1.86146e-15
      vertex 5.8 -16.2 1.98393e-15
      vertex 5.8 -15.2 1.86146e-15
    endloop
  endfacet
  facet normal 0 1.22465e-16 1
    outer loop
      vertex 5.8 -16.2 1.98393e-15
      vertex 2.6 -15.2 1.86146e-15
      vertex 2.6 -16.2 1.98393e-15
    endloop
  endfacet
  facet normal -0 1.22465e-16 1
    outer loop
      vertex 6.8 -27.8 3.40452e-15
      vertex 10 -28.8 3.52698e-15
      vertex 10 -27.8 3.40452e-15
    endloop
  endfacet
  facet normal 0 1.22465e-16 1
    outer loop
      vertex 10 -28.8 3.52698e-15
      vertex 6.8 -27.8 3.40452e-15
      vertex 6.8 -28.8 3.52698e-15
    endloop
  endfacet
  facet normal -0 1.22464e-16 1
    outer loop
      vertex 6.8 -23.6 2.89017e-15
      vertex 10 -24.6 3.01263e-15
      vertex 10 -23.6 2.89017e-15
    endloop
  endfacet
  facet normal 0 1.22464e-16 1
    outer loop
      vertex 10 -24.6 3.01263e-15
      vertex 6.8 -23.6 2.89017e-15
      vertex 6.8 -24.6 3.01263e-15
    endloop
  endfacet
  facet normal -0 1.22465e-16 1
    outer loop
      vertex 6.8 -19.4 2.37581e-15
      vertex 10 -20.4 2.49828e-15
      vertex 10 -19.4 2.37581e-15
    endloop
  endfacet
  facet normal 0 1.22465e-16 1
    outer loop
      vertex 10 -20.4 2.49828e-15
      vertex 6.8 -19.4 2.37581e-15
      vertex 6.8 -20.4 2.49828e-15
    endloop
  endfacet
  facet normal -0 1.22465e-16 1
    outer loop
      vertex 6.8 -15.2 1.86146e-15
      vertex 10 -16.2 1.98393e-15
      vertex 10 -15.2 1.86146e-15
    endloop
  endfacet
  facet normal 0 1.22465e-16 1
    outer loop
      vertex 10 -16.2 1.98393e-15
      vertex 6.8 -15.2 1.86146e-15
      vertex 6.8 -16.2 1.98393e-15
    endloop
  endfacet
  facet normal 2.21634e-22 1.22465e-16 1
    outer loop
      vertex 24 -25 3.06162e-15
      vertex 25.9 -0.0999994 1.22464e-17
      vertex 24 -17 2.0819e-15
    endloop
  endfacet
  facet normal 0 1.22465e-16 1
    outer loop
      vertex 22.5 -1.25 1.53081e-16
      vertex 25.9 -0.0999994 1.22464e-17
      vertex 22.5 -0.0999994 1.22464e-17
    endloop
  endfacet
  facet normal -1.40544e-24 1.22465e-16 1
    outer loop
      vertex 25.9 -0.0999994 1.22464e-17
      vertex 22.5 -1.25 1.53081e-16
      vertex 24 -17 2.0819e-15
    endloop
  endfacet
  facet normal 0 1.22465e-16 1
    outer loop
      vertex 22.5 -1.25 1.53081e-16
      vertex 16 -17 2.0819e-15
      vertex 24 -17 2.0819e-15
    endloop
  endfacet
  facet normal -7.152e-24 1.22465e-16 1
    outer loop
      vertex 10 -15.2 1.86146e-15
      vertex 16 -17 2.0819e-15
      vertex 10 -12 1.46958e-15
    endloop
  endfacet
  facet normal -1.06296e-23 1.22465e-16 1
    outer loop
      vertex 22.5 -1.25 1.53081e-16
      vertex 10 -12 1.46958e-15
      vertex 16 -17 2.0819e-15
    endloop
  endfacet
  facet normal 0 1.22465e-16 1
    outer loop
      vertex 22.5 -1.25 1.53081e-16
      vertex 6.8 -12 1.46958e-15
      vertex 10 -12 1.46958e-15
    endloop
  endfacet
  facet normal -0 1.22465e-16 1
    outer loop
      vertex 5.8 -15.2 1.86146e-15
      vertex 6.8 -15.2 1.86146e-15
      vertex 6.8 -12 1.46958e-15
    endloop
  endfacet
  facet normal 0 1.22465e-16 1
    outer loop
      vertex 6.8 -15.2 1.86146e-15
      vertex 5.8 -15.2 1.86146e-15
      vertex 6.8 -16.2 1.98393e-15
    endloop
  endfacet
  facet normal 0 1.22465e-16 1
    outer loop
      vertex 6.8 -16.2 1.98393e-15
      vertex 5.8 -16.2 1.98393e-15
      vertex 6.8 -19.4 2.37581e-15
    endloop
  endfacet
  facet normal -0 1.22465e-16 1
    outer loop
      vertex 5.8 -19.4 2.37581e-15
      vertex 6.8 -19.4 2.37581e-15
      vertex 5.8 -16.2 1.98393e-15
    endloop
  endfacet
  facet normal -0 1.22465e-16 1
    outer loop
      vertex 5.8 -20.4 2.49828e-15
      vertex 6.8 -20.4 2.49828e-15
      vertex 5.8 -19.4 2.37581e-15
    endloop
  endfacet
  facet normal 0 1.22465e-16 1
    outer loop
      vertex 6.8 -20.4 2.49828e-15
      vertex 5.8 -20.4 2.49828e-15
      vertex 6.8 -23.6 2.89017e-15
    endloop
  endfacet
  facet normal 0 1.22464e-16 1
    outer loop
      vertex 6.8 -23.6 2.89017e-15
      vertex 5.8 -23.6 2.89017e-15
      vertex 6.8 -24.6 3.01263e-15
    endloop
  endfacet
  facet normal -0 1.22464e-16 1
    outer loop
      vertex 5.8 -24.6 3.01263e-15
      vertex 6.8 -24.6 3.01263e-15
      vertex 5.8 -23.6 2.89017e-15
    endloop
  endfacet
  facet normal 0 1.22465e-16 1
    outer loop
      vertex 5.8 -15.2 1.86146e-15
      vertex 6.8 -12 1.46958e-15
      vertex 5.8 -12 1.46958e-15
    endloop
  endfacet
  facet normal 0 1.22465e-16 1
    outer loop
      vertex 22.5 -1.25 1.53081e-16
      vertex 5.8 -12 1.46958e-15
      vertex 6.8 -12 1.46958e-15
    endloop
  endfacet
  facet normal 0 1.22465e-16 1
    outer loop
      vertex 22.5 -1.25 1.53081e-16
      vertex 2.6 -12 1.46958e-15
      vertex 5.8 -12 1.46958e-15
    endloop
  endfacet
  facet normal -0 1.22465e-16 1
    outer loop
      vertex 1.6 -15.2 1.86146e-15
      vertex 2.6 -15.2 1.86146e-15
      vertex 2.6 -12 1.46958e-15
    endloop
  endfacet
  facet normal 0 1.22465e-16 1
    outer loop
      vertex 2.6 -15.2 1.86146e-15
      vertex 1.6 -15.2 1.86146e-15
      vertex 2.6 -16.2 1.98393e-15
    endloop
  endfacet
  facet normal 0 1.22465e-16 1
    outer loop
      vertex 2.6 -16.2 1.98393e-15
      vertex 1.6 -16.2 1.98393e-15
      vertex 2.6 -19.4 2.37581e-15
    endloop
  endfacet
  facet normal -0 1.22465e-16 1
    outer loop
      vertex 1.6 -19.4 2.37581e-15
      vertex 2.6 -19.4 2.37581e-15
      vertex 1.6 -16.2 1.98393e-15
    endloop
  endfacet
  facet normal -0 1.22465e-16 1
    outer loop
      vertex 1.6 -20.4 2.49828e-15
      vertex 2.6 -20.4 2.49828e-15
      vertex 1.6 -19.4 2.37581e-15
    endloop
  endfacet
  facet normal 0 1.22465e-16 1
    outer loop
      vertex 2.6 -20.4 2.49828e-15
      vertex 1.6 -20.4 2.49828e-15
      vertex 2.6 -23.6 2.89017e-15
    endloop
  endfacet
  facet normal 0 1.22464e-16 1
    outer loop
      vertex 2.6 -23.6 2.89017e-15
      vertex 1.6 -23.6 2.89017e-15
      vertex 2.6 -24.6 3.01263e-15
    endloop
  endfacet
  facet normal -0 1.22464e-16 1
    outer loop
      vertex 1.6 -24.6 3.01263e-15
      vertex 2.6 -24.6 3.01263e-15
      vertex 1.6 -23.6 2.89017e-15
    endloop
  endfacet
  facet normal 0 1.22465e-16 1
    outer loop
      vertex 1.6 -15.2 1.86146e-15
      vertex 2.6 -12 1.46958e-15
      vertex 1.6 -12 1.46958e-15
    endloop
  endfacet
  facet normal 0 1.22465e-16 1
    outer loop
      vertex 22.5 -1.25 1.53081e-16
      vertex 1.6 -12 1.46958e-15
      vertex 2.6 -12 1.46958e-15
    endloop
  endfacet
  facet normal 0 1.22465e-16 1
    outer loop
      vertex 22.5 -1.25 1.53081e-16
      vertex -1.6 -12 1.46958e-15
      vertex 1.6 -12 1.46958e-15
    endloop
  endfacet
  facet normal -0 1.22465e-16 1
    outer loop
      vertex -2.6 -15.2 1.86146e-15
      vertex -1.6 -15.2 1.86146e-15
      vertex -1.6 -12 1.46958e-15
    endloop
  endfacet
  facet normal 0 1.22465e-16 1
    outer loop
      vertex -1.6 -15.2 1.86146e-15
      vertex -2.6 -15.2 1.86146e-15
      vertex -1.6 -16.2 1.98393e-15
    endloop
  endfacet
  facet normal 0 1.22465e-16 1
    outer loop
      vertex -1.6 -16.2 1.98393e-15
      vertex -2.6 -16.2 1.98393e-15
      vertex -1.6 -19.4 2.37581e-15
    endloop
  endfacet
  facet normal -0 1.22465e-16 1
    outer loop
      vertex -2.6 -19.4 2.37581e-15
      vertex -1.6 -19.4 2.37581e-15
      vertex -2.6 -16.2 1.98393e-15
    endloop
  endfacet
  facet normal -0 1.22465e-16 1
    outer loop
      vertex -2.6 -20.4 2.49828e-15
      vertex -1.6 -20.4 2.49828e-15
      vertex -2.6 -19.4 2.37581e-15
    endloop
  endfacet
  facet normal 0 1.22465e-16 1
    outer loop
      vertex -1.6 -20.4 2.49828e-15
      vertex -2.6 -20.4 2.49828e-15
      vertex -1.6 -23.6 2.89017e-15
    endloop
  endfacet
  facet normal 0 1.22464e-16 1
    outer loop
      vertex -1.6 -23.6 2.89017e-15
      vertex -2.6 -23.6 2.89017e-15
      vertex -1.6 -24.6 3.01263e-15
    endloop
  endfacet
  facet normal -0 1.22464e-16 1
    outer loop
      vertex -2.6 -24.6 3.01263e-15
      vertex -1.6 -24.6 3.01263e-15
      vertex -2.6 -23.6 2.89017e-15
    endloop
  endfacet
  facet normal 0 1.22465e-16 1
    outer loop
      vertex -2.6 -15.2 1.86146e-15
      vertex -1.6 -12 1.46958e-15
      vertex -2.6 -12 1.46958e-15
    endloop
  endfacet
  facet normal -0 1.22465e-16 1
    outer loop
      vertex -22.5 -1.25 1.53081e-16
      vertex -1.6 -12 1.46958e-15
      vertex 22.5 -1.25 1.53081e-16
    endloop
  endfacet
  facet normal 0 1.22465e-16 1
    outer loop
      vertex -1.6 -12 1.46958e-15
      vertex -22.5 -1.25 1.53081e-16
      vertex -2.6 -12 1.46958e-15
    endloop
  endfacet
  facet normal -0 1.22465e-16 1
    outer loop
      vertex -6.8 -15.2 1.86146e-15
      vertex -5.8 -15.2 1.86146e-15
      vertex -5.8 -12 1.46958e-15
    endloop
  endfacet
  facet normal 0 1.22465e-16 1
    outer loop
      vertex -5.8 -15.2 1.86146e-15
      vertex -6.8 -15.2 1.86146e-15
      vertex -5.8 -16.2 1.98393e-15
    endloop
  endfacet
  facet normal 0 1.22465e-16 1
    outer loop
      vertex -5.8 -16.2 1.98393e-15
      vertex -6.8 -16.2 1.98393e-15
      vertex -5.8 -19.4 2.37581e-15
    endloop
  endfacet
  facet normal -0 1.22465e-16 1
    outer loop
      vertex -6.8 -19.4 2.37581e-15
      vertex -5.8 -19.4 2.37581e-15
      vertex -6.8 -16.2 1.98393e-15
    endloop
  endfacet
  facet normal -0 1.22465e-16 1
    outer loop
      vertex -6.8 -20.4 2.49828e-15
      vertex -5.8 -20.4 2.49828e-15
      vertex -6.8 -19.4 2.37581e-15
    endloop
  endfacet
  facet normal 0 1.22465e-16 1
    outer loop
      vertex -5.8 -20.4 2.49828e-15
      vertex -6.8 -20.4 2.49828e-15
      vertex -5.8 -23.6 2.89017e-15
    endloop
  endfacet
  facet normal 0 1.22464e-16 1
    outer loop
      vertex -5.8 -23.6 2.89017e-15
      vertex -6.8 -23.6 2.89017e-15
      vertex -5.8 -24.6 3.01263e-15
    endloop
  endfacet
  facet normal -0 1.22464e-16 1
    outer loop
      vertex -6.8 -24.6 3.01263e-15
      vertex -5.8 -24.6 3.01263e-15
      vertex -6.8 -23.6 2.89017e-15
    endloop
  endfacet
  facet normal 0 1.22465e-16 1
    outer loop
      vertex -6.8 -15.2 1.86146e-15
      vertex -5.8 -12 1.46958e-15
      vertex -6.8 -12 1.46958e-15
    endloop
  endfacet
  facet normal 0 1.22465e-16 1
    outer loop
      vertex -2.6 -12 1.46958e-15
      vertex -22.5 -1.25 1.53081e-16
      vertex -5.8 -12 1.46958e-15
    endloop
  endfacet
  facet normal 0 1.22465e-16 1
    outer loop
      vertex -5.8 -12 1.46958e-15
      vertex -22.5 -1.25 1.53081e-16
      vertex -6.8 -12 1.46958e-15
    endloop
  endfacet
  facet normal 7.152e-24 1.22465e-16 1
    outer loop
      vertex -16 -17 2.0819e-15
      vertex -10 -15.2 1.86146e-15
      vertex -10 -12 1.46958e-15
    endloop
  endfacet
  facet normal -1.77547e-23 1.22465e-16 1
    outer loop
      vertex -10 -15.2 1.86146e-15
      vertex -16 -17 2.0819e-15
      vertex -10 -16.2 1.98393e-15
    endloop
  endfacet
  facet normal -1.81871e-24 1.22465e-16 1
    outer loop
      vertex -10 -16.2 1.98393e-15
      vertex -16 -17 2.0819e-15
      vertex -10 -19.4 2.37581e-15
    endloop
  endfacet
  facet normal -7.27485e-25 1.22465e-16 1
    outer loop
      vertex -10 -19.4 2.37581e-15
      vertex -16 -17 2.0819e-15
      vertex -10 -20.4 2.49828e-15
    endloop
  endfacet
  facet normal -7.27485e-25 1.22465e-16 1
    outer loop
      vertex -16 -25 3.06162e-15
      vertex -10 -20.4 2.49828e-15
      vertex -16 -17 2.0819e-15
    endloop
  endfacet
  facet normal -5.45985e-23 1.22465e-16 1
    outer loop
      vertex -10 -20.4 2.49828e-15
      vertex -16 -25 3.06162e-15
      vertex -10 -23.6 2.89017e-15
    endloop
  endfacet
  facet normal 1.62996e-23 1.22464e-16 1
    outer loop
      vertex -10 -23.6 2.89017e-15
      vertex -16 -25 3.06162e-15
      vertex -10 -24.6 3.01263e-15
    endloop
  endfacet
  facet normal -3.95695e-24 1.22465e-16 1
    outer loop
      vertex -10 -24.6 3.01263e-15
      vertex -16 -25 3.06162e-15
      vertex -10 -27.8 3.40452e-15
    endloop
  endfacet
  facet normal -3.6748e-23 1.22465e-16 1
    outer loop
      vertex -10 -27.8 3.40452e-15
      vertex -16 -25 3.06162e-15
      vertex -10 -28.8 3.52698e-15
    endloop
  endfacet
  facet normal 0 1.22465e-16 1
    outer loop
      vertex -6.8 -12 1.46958e-15
      vertex -22.5 -1.25 1.53081e-16
      vertex -10 -12 1.46958e-15
    endloop
  endfacet
  facet normal 1.06296e-23 1.22465e-16 1
    outer loop
      vertex -22.5 -1.25 1.53081e-16
      vertex -16 -17 2.0819e-15
      vertex -10 -12 1.46958e-15
    endloop
  endfacet
  facet normal 0 1.22465e-16 1
    outer loop
      vertex -16 -17 2.0819e-15
      vertex -22.5 -1.25 1.53081e-16
      vertex -24 -17 2.0819e-15
    endloop
  endfacet
  facet normal -3.05067e-23 1.22465e-16 1
    outer loop
      vertex 25.9 -0.0999994 1.22464e-17
      vertex 24 -25 3.06162e-15
      vertex 25.9 -44 5.38845e-15
    endloop
  endfacet
  facet normal 0 1.22465e-16 1
    outer loop
      vertex 10 -32 3.91887e-15
      vertex 24 -25 3.06162e-15
      vertex 16 -25 3.06162e-15
    endloop
  endfacet
  facet normal 1.77547e-23 1.22465e-16 1
    outer loop
      vertex 10 -16.2 1.98393e-15
      vertex 16 -17 2.0819e-15
      vertex 10 -15.2 1.86146e-15
    endloop
  endfacet
  facet normal 1.81871e-24 1.22465e-16 1
    outer loop
      vertex 10 -19.4 2.37581e-15
      vertex 16 -17 2.0819e-15
      vertex 10 -16.2 1.98393e-15
    endloop
  endfacet
  facet normal 7.27485e-25 1.22465e-16 1
    outer loop
      vertex 10 -20.4 2.49828e-15
      vertex 16 -17 2.0819e-15
      vertex 10 -19.4 2.37581e-15
    endloop
  endfacet
  facet normal 7.27485e-25 1.22465e-16 1
    outer loop
      vertex 16 -17 2.0819e-15
      vertex 10 -20.4 2.49828e-15
      vertex 16 -25 3.06162e-15
    endloop
  endfacet
  facet normal 5.45985e-23 1.22465e-16 1
    outer loop
      vertex 10 -23.6 2.89017e-15
      vertex 16 -25 3.06162e-15
      vertex 10 -20.4 2.49828e-15
    endloop
  endfacet
  facet normal -1.62996e-23 1.22464e-16 1
    outer loop
      vertex 10 -24.6 3.01263e-15
      vertex 16 -25 3.06162e-15
      vertex 10 -23.6 2.89017e-15
    endloop
  endfacet
  facet normal 3.95695e-24 1.22465e-16 1
    outer loop
      vertex 10 -27.8 3.40452e-15
      vertex 16 -25 3.06162e-15
      vertex 10 -24.6 3.01263e-15
    endloop
  endfacet
  facet normal 3.6748e-23 1.22465e-16 1
    outer loop
      vertex 10 -28.8 3.52698e-15
      vertex 16 -25 3.06162e-15
      vertex 10 -27.8 3.40452e-15
    endloop
  endfacet
  facet normal 8.03863e-23 1.22465e-16 1
    outer loop
      vertex 10 -32 3.91887e-15
      vertex 16 -25 3.06162e-15
      vertex 10 -28.8 3.52698e-15
    endloop
  endfacet
  facet normal -1.06144e-23 1.22465e-16 1
    outer loop
      vertex 24 -25 3.06162e-15
      vertex 10 -32 3.91887e-15
      vertex 25.9 -44 5.38845e-15
    endloop
  endfacet
  facet normal -0 1.22465e-16 1
    outer loop
      vertex 6.8 -32 3.91887e-15
      vertex 25.9 -44 5.38845e-15
      vertex 10 -32 3.91887e-15
    endloop
  endfacet
  facet normal 0 1.22465e-16 1
    outer loop
      vertex 6.8 -16.2 1.98393e-15
      vertex 5.8 -15.2 1.86146e-15
      vertex 5.8 -16.2 1.98393e-15
    endloop
  endfacet
  facet normal 0 1.22465e-16 1
    outer loop
      vertex 6.8 -19.4 2.37581e-15
      vertex 5.8 -19.4 2.37581e-15
      vertex 6.8 -20.4 2.49828e-15
    endloop
  endfacet
  facet normal -0 1.22465e-16 1
    outer loop
      vertex 5.8 -23.6 2.89017e-15
      vertex 6.8 -23.6 2.89017e-15
      vertex 5.8 -20.4 2.49828e-15
    endloop
  endfacet
  facet normal 0 1.22465e-16 1
    outer loop
      vertex 6.8 -24.6 3.01263e-15
      vertex 5.8 -24.6 3.01263e-15
      vertex 6.8 -27.8 3.40452e-15
    endloop
  endfacet
  facet normal -0 1.22465e-16 1
    outer loop
      vertex 5.8 -27.8 3.40452e-15
      vertex 6.8 -27.8 3.40452e-15
      vertex 5.8 -24.6 3.01263e-15
    endloop
  endfacet
  facet normal 0 1.22465e-16 1
    outer loop
      vertex 6.8 -27.8 3.40452e-15
      vertex 5.8 -27.8 3.40452e-15
      vertex 6.8 -28.8 3.52698e-15
    endloop
  endfacet
  facet normal -0 1.22465e-16 1
    outer loop
      vertex 5.8 -28.8 3.52698e-15
      vertex 6.8 -28.8 3.52698e-15
      vertex 5.8 -27.8 3.40452e-15
    endloop
  endfacet
  facet normal 0 1.22465e-16 1
    outer loop
      vertex 6.8 -28.8 3.52698e-15
      vertex 5.8 -28.8 3.52698e-15
      vertex 6.8 -32 3.91887e-15
    endloop
  endfacet
  facet normal -0 1.22465e-16 1
    outer loop
      vertex 5.8 -32 3.91887e-15
      vertex 6.8 -32 3.91887e-15
      vertex 5.8 -28.8 3.52698e-15
    endloop
  endfacet
  facet normal -0 1.22465e-16 1
    outer loop
      vertex 5.8 -32 3.91887e-15
      vertex 25.9 -44 5.38845e-15
      vertex 6.8 -32 3.91887e-15
    endloop
  endfacet
  facet normal -0 1.22465e-16 1
    outer loop
      vertex 2.6 -32 3.91887e-15
      vertex 25.9 -44 5.38845e-15
      vertex 5.8 -32 3.91887e-15
    endloop
  endfacet
  facet normal 0 1.22465e-16 1
    outer loop
      vertex 2.6 -16.2 1.98393e-15
      vertex 1.6 -15.2 1.86146e-15
      vertex 1.6 -16.2 1.98393e-15
    endloop
  endfacet
  facet normal 0 1.22465e-16 1
    outer loop
      vertex 2.6 -19.4 2.37581e-15
      vertex 1.6 -19.4 2.37581e-15
      vertex 2.6 -20.4 2.49828e-15
    endloop
  endfacet
  facet normal -0 1.22465e-16 1
    outer loop
      vertex 1.6 -23.6 2.89017e-15
      vertex 2.6 -23.6 2.89017e-15
      vertex 1.6 -20.4 2.49828e-15
    endloop
  endfacet
  facet normal 0 1.22465e-16 1
    outer loop
      vertex 2.6 -24.6 3.01263e-15
      vertex 1.6 -24.6 3.01263e-15
      vertex 2.6 -27.8 3.40452e-15
    endloop
  endfacet
  facet normal -0 1.22465e-16 1
    outer loop
      vertex 1.6 -27.8 3.40452e-15
      vertex 2.6 -27.8 3.40452e-15
      vertex 1.6 -24.6 3.01263e-15
    endloop
  endfacet
  facet normal 0 1.22465e-16 1
    outer loop
      vertex 2.6 -27.8 3.40452e-15
      vertex 1.6 -27.8 3.40452e-15
      vertex 2.6 -28.8 3.52698e-15
    endloop
  endfacet
  facet normal -0 1.22465e-16 1
    outer loop
      vertex 1.6 -28.8 3.52698e-15
      vertex 2.6 -28.8 3.52698e-15
      vertex 1.6 -27.8 3.40452e-15
    endloop
  endfacet
  facet normal 0 1.22465e-16 1
    outer loop
      vertex 2.6 -28.8 3.52698e-15
      vertex 1.6 -28.8 3.52698e-15
      vertex 2.6 -32 3.91887e-15
    endloop
  endfacet
  facet normal -0 1.22465e-16 1
    outer loop
      vertex 1.6 -32 3.91887e-15
      vertex 2.6 -32 3.91887e-15
      vertex 1.6 -28.8 3.52698e-15
    endloop
  endfacet
  facet normal -0 1.22465e-16 1
    outer loop
      vertex 1.6 -32 3.91887e-15
      vertex 25.9 -44 5.38845e-15
      vertex 2.6 -32 3.91887e-15
    endloop
  endfacet
  facet normal -0 1.22465e-16 1
    outer loop
      vertex -1.6 -32 3.91887e-15
      vertex 25.9 -44 5.38845e-15
      vertex 1.6 -32 3.91887e-15
    endloop
  endfacet
  facet normal 0 1.22465e-16 1
    outer loop
      vertex -1.6 -16.2 1.98393e-15
      vertex -2.6 -15.2 1.86146e-15
      vertex -2.6 -16.2 1.98393e-15
    endloop
  endfacet
  facet normal 0 1.22465e-16 1
    outer loop
      vertex -1.6 -19.4 2.37581e-15
      vertex -2.6 -19.4 2.37581e-15
      vertex -1.6 -20.4 2.49828e-15
    endloop
  endfacet
  facet normal -0 1.22465e-16 1
    outer loop
      vertex -2.6 -23.6 2.89017e-15
      vertex -1.6 -23.6 2.89017e-15
      vertex -2.6 -20.4 2.49828e-15
    endloop
  endfacet
  facet normal 0 1.22465e-16 1
    outer loop
      vertex -1.6 -24.6 3.01263e-15
      vertex -2.6 -24.6 3.01263e-15
      vertex -1.6 -27.8 3.40452e-15
    endloop
  endfacet
  facet normal -0 1.22465e-16 1
    outer loop
      vertex -2.6 -27.8 3.40452e-15
      vertex -1.6 -27.8 3.40452e-15
      vertex -2.6 -24.6 3.01263e-15
    endloop
  endfacet
  facet normal 0 1.22465e-16 1
    outer loop
      vertex -1.6 -27.8 3.40452e-15
      vertex -2.6 -27.8 3.40452e-15
      vertex -1.6 -28.8 3.52698e-15
    endloop
  endfacet
  facet normal -0 1.22465e-16 1
    outer loop
      vertex -2.6 -28.8 3.52698e-15
      vertex -1.6 -28.8 3.52698e-15
      vertex -2.6 -27.8 3.40452e-15
    endloop
  endfacet
  facet normal 0 1.22465e-16 1
    outer loop
      vertex -1.6 -28.8 3.52698e-15
      vertex -2.6 -28.8 3.52698e-15
      vertex -1.6 -32 3.91887e-15
    endloop
  endfacet
  facet normal -0 1.22465e-16 1
    outer loop
      vertex -2.6 -32 3.91887e-15
      vertex -1.6 -32 3.91887e-15
      vertex -2.6 -28.8 3.52698e-15
    endloop
  endfacet
  facet normal 0 1.22465e-16 1
    outer loop
      vertex -25.9 -44 5.38845e-15
      vertex -1.6 -32 3.91887e-15
      vertex -2.6 -32 3.91887e-15
    endloop
  endfacet
  facet normal 0 1.22465e-16 1
    outer loop
      vertex -25.9 -44 5.38845e-15
      vertex -2.6 -32 3.91887e-15
      vertex -5.8 -32 3.91887e-15
    endloop
  endfacet
  facet normal 0 1.22465e-16 1
    outer loop
      vertex -5.8 -16.2 1.98393e-15
      vertex -6.8 -15.2 1.86146e-15
      vertex -6.8 -16.2 1.98393e-15
    endloop
  endfacet
  facet normal 0 1.22465e-16 1
    outer loop
      vertex -5.8 -19.4 2.37581e-15
      vertex -6.8 -19.4 2.37581e-15
      vertex -5.8 -20.4 2.49828e-15
    endloop
  endfacet
  facet normal -0 1.22465e-16 1
    outer loop
      vertex -6.8 -23.6 2.89017e-15
      vertex -5.8 -23.6 2.89017e-15
      vertex -6.8 -20.4 2.49828e-15
    endloop
  endfacet
  facet normal 0 1.22465e-16 1
    outer loop
      vertex -5.8 -24.6 3.01263e-15
      vertex -6.8 -24.6 3.01263e-15
      vertex -5.8 -27.8 3.40452e-15
    endloop
  endfacet
  facet normal -0 1.22465e-16 1
    outer loop
      vertex -6.8 -27.8 3.40452e-15
      vertex -5.8 -27.8 3.40452e-15
      vertex -6.8 -24.6 3.01263e-15
    endloop
  endfacet
  facet normal 0 1.22465e-16 1
    outer loop
      vertex -5.8 -27.8 3.40452e-15
      vertex -6.8 -27.8 3.40452e-15
      vertex -5.8 -28.8 3.52698e-15
    endloop
  endfacet
  facet normal -0 1.22465e-16 1
    outer loop
      vertex -6.8 -28.8 3.52698e-15
      vertex -5.8 -28.8 3.52698e-15
      vertex -6.8 -27.8 3.40452e-15
    endloop
  endfacet
  facet normal 0 1.22465e-16 1
    outer loop
      vertex -5.8 -28.8 3.52698e-15
      vertex -6.8 -28.8 3.52698e-15
      vertex -5.8 -32 3.91887e-15
    endloop
  endfacet
  facet normal -0 1.22465e-16 1
    outer loop
      vertex -6.8 -32 3.91887e-15
      vertex -5.8 -32 3.91887e-15
      vertex -6.8 -28.8 3.52698e-15
    endloop
  endfacet
  facet normal 0 1.22465e-16 1
    outer loop
      vertex -25.9 -44 5.38845e-15
      vertex -5.8 -32 3.91887e-15
      vertex -6.8 -32 3.91887e-15
    endloop
  endfacet
  facet normal 0 1.22465e-16 1
    outer loop
      vertex -25.9 -44 5.38845e-15
      vertex -6.8 -32 3.91887e-15
      vertex -10 -32 3.91887e-15
    endloop
  endfacet
  facet normal -8.03863e-23 1.22465e-16 1
    outer loop
      vertex -10 -28.8 3.52698e-15
      vertex -16 -25 3.06162e-15
      vertex -10 -32 3.91887e-15
    endloop
  endfacet
  facet normal -0 1.22465e-16 1
    outer loop
      vertex -24 -25 3.06162e-15
      vertex -10 -32 3.91887e-15
      vertex -16 -25 3.06162e-15
    endloop
  endfacet
  facet normal 0 1.22465e-16 1
    outer loop
      vertex -1.6 -32 3.91887e-15
      vertex -25.9 -44 5.38845e-15
      vertex 25.9 -44 5.38845e-15
    endloop
  endfacet
  facet normal 1.06144e-23 1.22465e-16 1
    outer loop
      vertex -24 -25 3.06162e-15
      vertex -25.9 -44 5.38845e-15
      vertex -10 -32 3.91887e-15
    endloop
  endfacet
  facet normal 3.05067e-23 1.22465e-16 1
    outer loop
      vertex -25.9 -44 5.38845e-15
      vertex -24 -25 3.06162e-15
      vertex -25.9 -0.0999994 1.22464e-17
    endloop
  endfacet
  facet normal 0 -1 0
    outer loop
      vertex -25.9 -44 -2.5
      vertex 25.9 -44 5.38845e-15
      vertex -25.9 -44 5.38845e-15
    endloop
  endfacet
  facet normal 0 -1 -0
    outer loop
      vertex 25.9 -44 5.38845e-15
      vertex -25.9 -44 -2.5
      vertex 25.9 -44 -2.5
    endloop
  endfacet
  facet normal 1 0 0
    outer loop
      vertex -1.6 -23.6 2.89017e-15
      vertex -1.6 -20.4 -1.5
      vertex -1.6 -20.4 2.49828e-15
    endloop
  endfacet
  facet normal 1 0 0
    outer loop
      vertex -1.6 -20.4 -1.5
      vertex -1.6 -23.6 2.89017e-15
      vertex -1.6 -23.6 -1.5
    endloop
  endfacet
  facet normal -0 0 1
    outer loop
      vertex -1.6 -20.4 -1.5
      vertex 1.6 -23.6 -1.5
      vertex 1.6 -20.4 -1.5
    endloop
  endfacet
  facet normal 0 0 1
    outer loop
      vertex 1.6 -23.6 -1.5
      vertex -1.6 -20.4 -1.5
      vertex -1.6 -23.6 -1.5
    endloop
  endfacet
  facet normal -1 0 0
    outer loop
      vertex 1.6 -23.6 -1.5
      vertex 1.6 -20.4 2.49828e-15
      vertex 1.6 -20.4 -1.5
    endloop
  endfacet
  facet normal -1 -0 0
    outer loop
      vertex 1.6 -20.4 2.49828e-15
      vertex 1.6 -23.6 -1.5
      vertex 1.6 -23.6 2.89017e-15
    endloop
  endfacet
  facet normal 0 1 -0
    outer loop
      vertex 1.6 -23.6 -1.5
      vertex -1.6 -23.6 2.89017e-15
      vertex 1.6 -23.6 2.89017e-15
    endloop
  endfacet
  facet normal 0 1 0
    outer loop
      vertex -1.6 -23.6 2.89017e-15
      vertex 1.6 -23.6 -1.5
      vertex -1.6 -23.6 -1.5
    endloop
  endfacet
  facet normal 0 -1 0
    outer loop
      vertex -1.6 -20.4 -1.5
      vertex 1.6 -20.4 2.49828e-15
      vertex -1.6 -20.4 2.49828e-15
    endloop
  endfacet
  facet normal 0 -1 -0
    outer loop
      vertex 1.6 -20.4 2.49828e-15
      vertex -1.6 -20.4 -1.5
      vertex 1.6 -20.4 -1.5
    endloop
  endfacet
  facet normal 1 0 0
    outer loop
      vertex 2.6 -23.6 2.89017e-15
      vertex 2.6 -20.4 -1.5
      vertex 2.6 -20.4 2.49828e-15
    endloop
  endfacet
  facet normal 1 0 0
    outer loop
      vertex 2.6 -20.4 -1.5
      vertex 2.6 -23.6 2.89017e-15
      vertex 2.6 -23.6 -1.5
    endloop
  endfacet
  facet normal -0 0 1
    outer loop
      vertex 2.6 -20.4 -1.5
      vertex 5.8 -23.6 -1.5
      vertex 5.8 -20.4 -1.5
    endloop
  endfacet
  facet normal 0 0 1
    outer loop
      vertex 5.8 -23.6 -1.5
      vertex 2.6 -20.4 -1.5
      vertex 2.6 -23.6 -1.5
    endloop
  endfacet
  facet normal -1 0 0
    outer loop
      vertex 5.8 -23.6 -1.5
      vertex 5.8 -20.4 2.49828e-15
      vertex 5.8 -20.4 -1.5
    endloop
  endfacet
  facet normal -1 -0 0
    outer loop
      vertex 5.8 -20.4 2.49828e-15
      vertex 5.8 -23.6 -1.5
      vertex 5.8 -23.6 2.89017e-15
    endloop
  endfacet
  facet normal 0 1 -0
    outer loop
      vertex 5.8 -23.6 -1.5
      vertex 2.6 -23.6 2.89017e-15
      vertex 5.8 -23.6 2.89017e-15
    endloop
  endfacet
  facet normal 0 1 0
    outer loop
      vertex 2.6 -23.6 2.89017e-15
      vertex 5.8 -23.6 -1.5
      vertex 2.6 -23.6 -1.5
    endloop
  endfacet
  facet normal 0 -1 0
    outer loop
      vertex 2.6 -20.4 -1.5
      vertex 5.8 -20.4 2.49828e-15
      vertex 2.6 -20.4 2.49828e-15
    endloop
  endfacet
  facet normal 0 -1 -0
    outer loop
      vertex 5.8 -20.4 2.49828e-15
      vertex 2.6 -20.4 -1.5
      vertex 5.8 -20.4 -1.5
    endloop
  endfacet
  facet normal 1 0 0
    outer loop
      vertex 6.8 -23.6 2.89017e-15
      vertex 6.8 -20.4 -1.5
      vertex 6.8 -20.4 2.49828e-15
    endloop
  endfacet
  facet normal 1 0 0
    outer loop
      vertex 6.8 -20.4 -1.5
      vertex 6.8 -23.6 2.89017e-15
      vertex 6.8 -23.6 -1.5
    endloop
  endfacet
  facet normal -0 0 1
    outer loop
      vertex 6.8 -20.4 -1.5
      vertex 10 -23.6 -1.5
      vertex 10 -20.4 -1.5
    endloop
  endfacet
  facet normal 0 0 1
    outer loop
      vertex 10 -23.6 -1.5
      vertex 6.8 -20.4 -1.5
      vertex 6.8 -23.6 -1.5
    endloop
  endfacet
  facet normal -1 0 0
    outer loop
      vertex 10 -23.6 -1.5
      vertex 10 -20.4 2.49828e-15
      vertex 10 -20.4 -1.5
    endloop
  endfacet
  facet normal -1 -0 0
    outer loop
      vertex 10 -20.4 2.49828e-15
      vertex 10 -23.6 -1.5
      vertex 10 -23.6 2.89017e-15
    endloop
  endfacet
  facet normal 0 1 -0
    outer loop
      vertex 10 -23.6 -1.5
      vertex 6.8 -23.6 2.89017e-15
      vertex 10 -23.6 2.89017e-15
    endloop
  endfacet
  facet normal 0 1 0
    outer loop
      vertex 6.8 -23.6 2.89017e-15
      vertex 10 -23.6 -1.5
      vertex 6.8 -23.6 -1.5
    endloop
  endfacet
  facet normal 0 -1 0
    outer loop
      vertex 6.8 -20.4 -1.5
      vertex 10 -20.4 2.49828e-15
      vertex 6.8 -20.4 2.49828e-15
    endloop
  endfacet
  facet normal 0 -1 -0
    outer loop
      vertex 10 -20.4 2.49828e-15
      vertex 6.8 -20.4 -1.5
      vertex 10 -20.4 -1.5
    endloop
  endfacet
  facet normal 1 0 0
    outer loop
      vertex -5.8 -23.6 2.89017e-15
      vertex -5.8 -20.4 -1.5
      vertex -5.8 -20.4 2.49828e-15
    endloop
  endfacet
  facet normal 1 0 0
    outer loop
      vertex -5.8 -20.4 -1.5
      vertex -5.8 -23.6 2.89017e-15
      vertex -5.8 -23.6 -1.5
    endloop
  endfacet
  facet normal -0 0 1
    outer loop
      vertex -5.8 -20.4 -1.5
      vertex -2.6 -23.6 -1.5
      vertex -2.6 -20.4 -1.5
    endloop
  endfacet
  facet normal 0 0 1
    outer loop
      vertex -2.6 -23.6 -1.5
      vertex -5.8 -20.4 -1.5
      vertex -5.8 -23.6 -1.5
    endloop
  endfacet
  facet normal -1 0 0
    outer loop
      vertex -2.6 -23.6 -1.5
      vertex -2.6 -20.4 2.49828e-15
      vertex -2.6 -20.4 -1.5
    endloop
  endfacet
  facet normal -1 -0 0
    outer loop
      vertex -2.6 -20.4 2.49828e-15
      vertex -2.6 -23.6 -1.5
      vertex -2.6 -23.6 2.89017e-15
    endloop
  endfacet
  facet normal 0 -1 0
    outer loop
      vertex -5.8 -20.4 -1.5
      vertex -2.6 -20.4 2.49828e-15
      vertex -5.8 -20.4 2.49828e-15
    endloop
  endfacet
  facet normal 0 -1 -0
    outer loop
      vertex -2.6 -20.4 2.49828e-15
      vertex -5.8 -20.4 -1.5
      vertex -2.6 -20.4 -1.5
    endloop
  endfacet
  facet normal 0 1 -0
    outer loop
      vertex -2.6 -23.6 -1.5
      vertex -5.8 -23.6 2.89017e-15
      vertex -2.6 -23.6 2.89017e-15
    endloop
  endfacet
  facet normal 0 1 0
    outer loop
      vertex -5.8 -23.6 2.89017e-15
      vertex -2.6 -23.6 -1.5
      vertex -5.8 -23.6 -1.5
    endloop
  endfacet
  facet normal 1 0 0
    outer loop
      vertex -10 -23.6 2.89017e-15
      vertex -10 -20.4 -1.5
      vertex -10 -20.4 2.49828e-15
    endloop
  endfacet
  facet normal 1 0 0
    outer loop
      vertex -10 -20.4 -1.5
      vertex -10 -23.6 2.89017e-15
      vertex -10 -23.6 -1.5
    endloop
  endfacet
  facet normal -0 0 1
    outer loop
      vertex -10 -20.4 -1.5
      vertex -6.8 -23.6 -1.5
      vertex -6.8 -20.4 -1.5
    endloop
  endfacet
  facet normal 0 0 1
    outer loop
      vertex -6.8 -23.6 -1.5
      vertex -10 -20.4 -1.5
      vertex -10 -23.6 -1.5
    endloop
  endfacet
  facet normal -1 0 0
    outer loop
      vertex -6.8 -23.6 -1.5
      vertex -6.8 -20.4 2.49828e-15
      vertex -6.8 -20.4 -1.5
    endloop
  endfacet
  facet normal -1 -0 0
    outer loop
      vertex -6.8 -20.4 2.49828e-15
      vertex -6.8 -23.6 -1.5
      vertex -6.8 -23.6 2.89017e-15
    endloop
  endfacet
  facet normal 0 -1 0
    outer loop
      vertex -10 -20.4 -1.5
      vertex -6.8 -20.4 2.49828e-15
      vertex -10 -20.4 2.49828e-15
    endloop
  endfacet
  facet normal 0 -1 -0
    outer loop
      vertex -6.8 -20.4 2.49828e-15
      vertex -10 -20.4 -1.5
      vertex -6.8 -20.4 -1.5
    endloop
  endfacet
  facet normal 0 1 -0
    outer loop
      vertex -6.8 -23.6 -1.5
      vertex -10 -23.6 2.89017e-15
      vertex -6.8 -23.6 2.89017e-15
    endloop
  endfacet
  facet normal 0 1 0
    outer loop
      vertex -10 -23.6 2.89017e-15
      vertex -6.8 -23.6 -1.5
      vertex -10 -23.6 -1.5
    endloop
  endfacet
  facet normal 1 0 0
    outer loop
      vertex -1.6 -27.8 3.40452e-15
      vertex -1.6 -24.6 -1.5
      vertex -1.6 -24.6 3.01263e-15
    endloop
  endfacet
  facet normal 1 0 0
    outer loop
      vertex -1.6 -24.6 -1.5
      vertex -1.6 -27.8 3.40452e-15
      vertex -1.6 -27.8 -1.5
    endloop
  endfacet
  facet normal -0 0 1
    outer loop
      vertex -1.6 -24.6 -1.5
      vertex 1.6 -27.8 -1.5
      vertex 1.6 -24.6 -1.5
    endloop
  endfacet
  facet normal 0 0 1
    outer loop
      vertex 1.6 -27.8 -1.5
      vertex -1.6 -24.6 -1.5
      vertex -1.6 -27.8 -1.5
    endloop
  endfacet
  facet normal -1 0 0
    outer loop
      vertex 1.6 -27.8 -1.5
      vertex 1.6 -24.6 3.01263e-15
      vertex 1.6 -24.6 -1.5
    endloop
  endfacet
  facet normal -1 -0 0
    outer loop
      vertex 1.6 -24.6 3.01263e-15
      vertex 1.6 -27.8 -1.5
      vertex 1.6 -27.8 3.40452e-15
    endloop
  endfacet
  facet normal 0 1 -0
    outer loop
      vertex 1.6 -27.8 -1.5
      vertex -1.6 -27.8 3.40452e-15
      vertex 1.6 -27.8 3.40452e-15
    endloop
  endfacet
  facet normal 0 1 0
    outer loop
      vertex -1.6 -27.8 3.40452e-15
      vertex 1.6 -27.8 -1.5
      vertex -1.6 -27.8 -1.5
    endloop
  endfacet
  facet normal 0 -1 0
    outer loop
      vertex -1.6 -24.6 -1.5
      vertex 1.6 -24.6 3.01263e-15
      vertex -1.6 -24.6 3.01263e-15
    endloop
  endfacet
  facet normal 0 -1 -0
    outer loop
      vertex 1.6 -24.6 3.01263e-15
      vertex -1.6 -24.6 -1.5
      vertex 1.6 -24.6 -1.5
    endloop
  endfacet
  facet normal 1 0 0
    outer loop
      vertex 2.6 -27.8 3.40452e-15
      vertex 2.6 -24.6 -1.5
      vertex 2.6 -24.6 3.01263e-15
    endloop
  endfacet
  facet normal 1 0 0
    outer loop
      vertex 2.6 -24.6 -1.5
      vertex 2.6 -27.8 3.40452e-15
      vertex 2.6 -27.8 -1.5
    endloop
  endfacet
  facet normal -0 0 1
    outer loop
      vertex 2.6 -24.6 -1.5
      vertex 5.8 -27.8 -1.5
      vertex 5.8 -24.6 -1.5
    endloop
  endfacet
  facet normal 0 0 1
    outer loop
      vertex 5.8 -27.8 -1.5
      vertex 2.6 -24.6 -1.5
      vertex 2.6 -27.8 -1.5
    endloop
  endfacet
  facet normal -1 0 0
    outer loop
      vertex 5.8 -27.8 -1.5
      vertex 5.8 -24.6 3.01263e-15
      vertex 5.8 -24.6 -1.5
    endloop
  endfacet
  facet normal -1 -0 0
    outer loop
      vertex 5.8 -24.6 3.01263e-15
      vertex 5.8 -27.8 -1.5
      vertex 5.8 -27.8 3.40452e-15
    endloop
  endfacet
  facet normal 0 1 -0
    outer loop
      vertex 5.8 -27.8 -1.5
      vertex 2.6 -27.8 3.40452e-15
      vertex 5.8 -27.8 3.40452e-15
    endloop
  endfacet
  facet normal 0 1 0
    outer loop
      vertex 2.6 -27.8 3.40452e-15
      vertex 5.8 -27.8 -1.5
      vertex 2.6 -27.8 -1.5
    endloop
  endfacet
  facet normal 0 -1 0
    outer loop
      vertex 2.6 -24.6 -1.5
      vertex 5.8 -24.6 3.01263e-15
      vertex 2.6 -24.6 3.01263e-15
    endloop
  endfacet
  facet normal 0 -1 -0
    outer loop
      vertex 5.8 -24.6 3.01263e-15
      vertex 2.6 -24.6 -1.5
      vertex 5.8 -24.6 -1.5
    endloop
  endfacet
  facet normal 1 0 0
    outer loop
      vertex 6.8 -27.8 3.40452e-15
      vertex 6.8 -24.6 -1.5
      vertex 6.8 -24.6 3.01263e-15
    endloop
  endfacet
  facet normal 1 0 0
    outer loop
      vertex 6.8 -24.6 -1.5
      vertex 6.8 -27.8 3.40452e-15
      vertex 6.8 -27.8 -1.5
    endloop
  endfacet
  facet normal -0 0 1
    outer loop
      vertex 6.8 -24.6 -1.5
      vertex 10 -27.8 -1.5
      vertex 10 -24.6 -1.5
    endloop
  endfacet
  facet normal 0 0 1
    outer loop
      vertex 10 -27.8 -1.5
      vertex 6.8 -24.6 -1.5
      vertex 6.8 -27.8 -1.5
    endloop
  endfacet
  facet normal -1 0 0
    outer loop
      vertex 10 -27.8 -1.5
      vertex 10 -24.6 3.01263e-15
      vertex 10 -24.6 -1.5
    endloop
  endfacet
  facet normal -1 -0 0
    outer loop
      vertex 10 -24.6 3.01263e-15
      vertex 10 -27.8 -1.5
      vertex 10 -27.8 3.40452e-15
    endloop
  endfacet
  facet normal 0 1 -0
    outer loop
      vertex 10 -27.8 -1.5
      vertex 6.8 -27.8 3.40452e-15
      vertex 10 -27.8 3.40452e-15
    endloop
  endfacet
  facet normal 0 1 0
    outer loop
      vertex 6.8 -27.8 3.40452e-15
      vertex 10 -27.8 -1.5
      vertex 6.8 -27.8 -1.5
    endloop
  endfacet
  facet normal 0 -1 0
    outer loop
      vertex 6.8 -24.6 -1.5
      vertex 10 -24.6 3.01263e-15
      vertex 6.8 -24.6 3.01263e-15
    endloop
  endfacet
  facet normal 0 -1 -0
    outer loop
      vertex 10 -24.6 3.01263e-15
      vertex 6.8 -24.6 -1.5
      vertex 10 -24.6 -1.5
    endloop
  endfacet
  facet normal 1 0 0
    outer loop
      vertex -5.8 -27.8 3.40452e-15
      vertex -5.8 -24.6 -1.5
      vertex -5.8 -24.6 3.01263e-15
    endloop
  endfacet
  facet normal 1 0 0
    outer loop
      vertex -5.8 -24.6 -1.5
      vertex -5.8 -27.8 3.40452e-15
      vertex -5.8 -27.8 -1.5
    endloop
  endfacet
  facet normal -0 0 1
    outer loop
      vertex -5.8 -24.6 -1.5
      vertex -2.6 -27.8 -1.5
      vertex -2.6 -24.6 -1.5
    endloop
  endfacet
  facet normal 0 0 1
    outer loop
      vertex -2.6 -27.8 -1.5
      vertex -5.8 -24.6 -1.5
      vertex -5.8 -27.8 -1.5
    endloop
  endfacet
  facet normal -1 0 0
    outer loop
      vertex -2.6 -27.8 -1.5
      vertex -2.6 -24.6 3.01263e-15
      vertex -2.6 -24.6 -1.5
    endloop
  endfacet
  facet normal -1 -0 0
    outer loop
      vertex -2.6 -24.6 3.01263e-15
      vertex -2.6 -27.8 -1.5
      vertex -2.6 -27.8 3.40452e-15
    endloop
  endfacet
  facet normal 0 -1 0
    outer loop
      vertex -5.8 -24.6 -1.5
      vertex -2.6 -24.6 3.01263e-15
      vertex -5.8 -24.6 3.01263e-15
    endloop
  endfacet
  facet normal 0 -1 -0
    outer loop
      vertex -2.6 -24.6 3.01263e-15
      vertex -5.8 -24.6 -1.5
      vertex -2.6 -24.6 -1.5
    endloop
  endfacet
  facet normal 0 1 -0
    outer loop
      vertex -2.6 -27.8 -1.5
      vertex -5.8 -27.8 3.40452e-15
      vertex -2.6 -27.8 3.40452e-15
    endloop
  endfacet
  facet normal 0 1 0
    outer loop
      vertex -5.8 -27.8 3.40452e-15
      vertex -2.6 -27.8 -1.5
      vertex -5.8 -27.8 -1.5
    endloop
  endfacet
  facet normal 1 0 0
    outer loop
      vertex -10 -27.8 3.40452e-15
      vertex -10 -24.6 -1.5
      vertex -10 -24.6 3.01263e-15
    endloop
  endfacet
  facet normal 1 0 0
    outer loop
      vertex -10 -24.6 -1.5
      vertex -10 -27.8 3.40452e-15
      vertex -10 -27.8 -1.5
    endloop
  endfacet
  facet normal -0 0 1
    outer loop
      vertex -10 -24.6 -1.5
      vertex -6.8 -27.8 -1.5
      vertex -6.8 -24.6 -1.5
    endloop
  endfacet
  facet normal 0 0 1
    outer loop
      vertex -6.8 -27.8 -1.5
      vertex -10 -24.6 -1.5
      vertex -10 -27.8 -1.5
    endloop
  endfacet
  facet normal -1 0 0
    outer loop
      vertex -6.8 -27.8 -1.5
      vertex -6.8 -24.6 3.01263e-15
      vertex -6.8 -24.6 -1.5
    endloop
  endfacet
  facet normal -1 -0 0
    outer loop
      vertex -6.8 -24.6 3.01263e-15
      vertex -6.8 -27.8 -1.5
      vertex -6.8 -27.8 3.40452e-15
    endloop
  endfacet
  facet normal 0 -1 0
    outer loop
      vertex -10 -24.6 -1.5
      vertex -6.8 -24.6 3.01263e-15
      vertex -10 -24.6 3.01263e-15
    endloop
  endfacet
  facet normal 0 -1 -0
    outer loop
      vertex -6.8 -24.6 3.01263e-15
      vertex -10 -24.6 -1.5
      vertex -6.8 -24.6 -1.5
    endloop
  endfacet
  facet normal 0 1 -0
    outer loop
      vertex -6.8 -27.8 -1.5
      vertex -10 -27.8 3.40452e-15
      vertex -6.8 -27.8 3.40452e-15
    endloop
  endfacet
  facet normal 0 1 0
    outer loop
      vertex -10 -27.8 3.40452e-15
      vertex -6.8 -27.8 -1.5
      vertex -10 -27.8 -1.5
    endloop
  endfacet
  facet normal 1 0 0
    outer loop
      vertex -1.6 -32 3.91887e-15
      vertex -1.6 -28.8 -1.5
      vertex -1.6 -28.8 3.52698e-15
    endloop
  endfacet
  facet normal 1 0 0
    outer loop
      vertex -1.6 -28.8 -1.5
      vertex -1.6 -32 3.91887e-15
      vertex -1.6 -32 -1.5
    endloop
  endfacet
  facet normal -0 0 1
    outer loop
      vertex -1.6 -28.8 -1.5
      vertex 1.6 -32 -1.5
      vertex 1.6 -28.8 -1.5
    endloop
  endfacet
  facet normal 0 0 1
    outer loop
      vertex 1.6 -32 -1.5
      vertex -1.6 -28.8 -1.5
      vertex -1.6 -32 -1.5
    endloop
  endfacet
  facet normal -1 0 0
    outer loop
      vertex 1.6 -32 -1.5
      vertex 1.6 -28.8 3.52698e-15
      vertex 1.6 -28.8 -1.5
    endloop
  endfacet
  facet normal -1 -0 0
    outer loop
      vertex 1.6 -28.8 3.52698e-15
      vertex 1.6 -32 -1.5
      vertex 1.6 -32 3.91887e-15
    endloop
  endfacet
  facet normal 0 1 -0
    outer loop
      vertex 1.6 -32 -1.5
      vertex -1.6 -32 3.91887e-15
      vertex 1.6 -32 3.91887e-15
    endloop
  endfacet
  facet normal 0 1 0
    outer loop
      vertex -1.6 -32 3.91887e-15
      vertex 1.6 -32 -1.5
      vertex -1.6 -32 -1.5
    endloop
  endfacet
  facet normal 0 -1 0
    outer loop
      vertex -1.6 -28.8 -1.5
      vertex 1.6 -28.8 3.52698e-15
      vertex -1.6 -28.8 3.52698e-15
    endloop
  endfacet
  facet normal 0 -1 -0
    outer loop
      vertex 1.6 -28.8 3.52698e-15
      vertex -1.6 -28.8 -1.5
      vertex 1.6 -28.8 -1.5
    endloop
  endfacet
  facet normal 1 0 0
    outer loop
      vertex 2.6 -32 3.91887e-15
      vertex 2.6 -28.8 -1.5
      vertex 2.6 -28.8 3.52698e-15
    endloop
  endfacet
  facet normal 1 0 0
    outer loop
      vertex 2.6 -28.8 -1.5
      vertex 2.6 -32 3.91887e-15
      vertex 2.6 -32 -1.5
    endloop
  endfacet
  facet normal -0 0 1
    outer loop
      vertex 2.6 -28.8 -1.5
      vertex 5.8 -32 -1.5
      vertex 5.8 -28.8 -1.5
    endloop
  endfacet
  facet normal 0 0 1
    outer loop
      vertex 5.8 -32 -1.5
      vertex 2.6 -28.8 -1.5
      vertex 2.6 -32 -1.5
    endloop
  endfacet
  facet normal -1 0 0
    outer loop
      vertex 5.8 -32 -1.5
      vertex 5.8 -28.8 3.52698e-15
      vertex 5.8 -28.8 -1.5
    endloop
  endfacet
  facet normal -1 -0 0
    outer loop
      vertex 5.8 -28.8 3.52698e-15
      vertex 5.8 -32 -1.5
      vertex 5.8 -32 3.91887e-15
    endloop
  endfacet
  facet normal 0 1 -0
    outer loop
      vertex 5.8 -32 -1.5
      vertex 2.6 -32 3.91887e-15
      vertex 5.8 -32 3.91887e-15
    endloop
  endfacet
  facet normal 0 1 0
    outer loop
      vertex 2.6 -32 3.91887e-15
      vertex 5.8 -32 -1.5
      vertex 2.6 -32 -1.5
    endloop
  endfacet
  facet normal 0 -1 0
    outer loop
      vertex 2.6 -28.8 -1.5
      vertex 5.8 -28.8 3.52698e-15
      vertex 2.6 -28.8 3.52698e-15
    endloop
  endfacet
  facet normal 0 -1 -0
    outer loop
      vertex 5.8 -28.8 3.52698e-15
      vertex 2.6 -28.8 -1.5
      vertex 5.8 -28.8 -1.5
    endloop
  endfacet
  facet normal 1 0 0
    outer loop
      vertex 6.8 -32 3.91887e-15
      vertex 6.8 -28.8 -1.5
      vertex 6.8 -28.8 3.52698e-15
    endloop
  endfacet
  facet normal 1 0 0
    outer loop
      vertex 6.8 -28.8 -1.5
      vertex 6.8 -32 3.91887e-15
      vertex 6.8 -32 -1.5
    endloop
  endfacet
  facet normal -0 0 1
    outer loop
      vertex 6.8 -28.8 -1.5
      vertex 10 -32 -1.5
      vertex 10 -28.8 -1.5
    endloop
  endfacet
  facet normal 0 0 1
    outer loop
      vertex 10 -32 -1.5
      vertex 6.8 -28.8 -1.5
      vertex 6.8 -32 -1.5
    endloop
  endfacet
  facet normal -1 0 0
    outer loop
      vertex 10 -32 -1.5
      vertex 10 -28.8 3.52698e-15
      vertex 10 -28.8 -1.5
    endloop
  endfacet
  facet normal -1 -0 0
    outer loop
      vertex 10 -28.8 3.52698e-15
      vertex 10 -32 -1.5
      vertex 10 -32 3.91887e-15
    endloop
  endfacet
  facet normal 0 1 -0
    outer loop
      vertex 10 -32 -1.5
      vertex 6.8 -32 3.91887e-15
      vertex 10 -32 3.91887e-15
    endloop
  endfacet
  facet normal 0 1 0
    outer loop
      vertex 6.8 -32 3.91887e-15
      vertex 10 -32 -1.5
      vertex 6.8 -32 -1.5
    endloop
  endfacet
  facet normal 0 -1 0
    outer loop
      vertex 6.8 -28.8 -1.5
      vertex 10 -28.8 3.52698e-15
      vertex 6.8 -28.8 3.52698e-15
    endloop
  endfacet
  facet normal 0 -1 -0
    outer loop
      vertex 10 -28.8 3.52698e-15
      vertex 6.8 -28.8 -1.5
      vertex 10 -28.8 -1.5
    endloop
  endfacet
  facet normal 1 0 0
    outer loop
      vertex -5.8 -32 3.91887e-15
      vertex -5.8 -28.8 -1.5
      vertex -5.8 -28.8 3.52698e-15
    endloop
  endfacet
  facet normal 1 0 0
    outer loop
      vertex -5.8 -28.8 -1.5
      vertex -5.8 -32 3.91887e-15
      vertex -5.8 -32 -1.5
    endloop
  endfacet
  facet normal -0 0 1
    outer loop
      vertex -5.8 -28.8 -1.5
      vertex -2.6 -32 -1.5
      vertex -2.6 -28.8 -1.5
    endloop
  endfacet
  facet normal 0 0 1
    outer loop
      vertex -2.6 -32 -1.5
      vertex -5.8 -28.8 -1.5
      vertex -5.8 -32 -1.5
    endloop
  endfacet
  facet normal -1 0 0
    outer loop
      vertex -2.6 -32 -1.5
      vertex -2.6 -28.8 3.52698e-15
      vertex -2.6 -28.8 -1.5
    endloop
  endfacet
  facet normal -1 -0 0
    outer loop
      vertex -2.6 -28.8 3.52698e-15
      vertex -2.6 -32 -1.5
      vertex -2.6 -32 3.91887e-15
    endloop
  endfacet
  facet normal 0 -1 0
    outer loop
      vertex -5.8 -28.8 -1.5
      vertex -2.6 -28.8 3.52698e-15
      vertex -5.8 -28.8 3.52698e-15
    endloop
  endfacet
  facet normal 0 -1 -0
    outer loop
      vertex -2.6 -28.8 3.52698e-15
      vertex -5.8 -28.8 -1.5
      vertex -2.6 -28.8 -1.5
    endloop
  endfacet
  facet normal 0 1 -0
    outer loop
      vertex -2.6 -32 -1.5
      vertex -5.8 -32 3.91887e-15
      vertex -2.6 -32 3.91887e-15
    endloop
  endfacet
  facet normal 0 1 0
    outer loop
      vertex -5.8 -32 3.91887e-15
      vertex -2.6 -32 -1.5
      vertex -5.8 -32 -1.5
    endloop
  endfacet
  facet normal 1 0 0
    outer loop
      vertex -10 -32 3.91887e-15
      vertex -10 -28.8 -1.5
      vertex -10 -28.8 3.52698e-15
    endloop
  endfacet
  facet normal 1 0 0
    outer loop
      vertex -10 -28.8 -1.5
      vertex -10 -32 3.91887e-15
      vertex -10 -32 -1.5
    endloop
  endfacet
  facet normal -0 0 1
    outer loop
      vertex -10 -28.8 -1.5
      vertex -6.8 -32 -1.5
      vertex -6.8 -28.8 -1.5
    endloop
  endfacet
  facet normal 0 0 1
    outer loop
      vertex -6.8 -32 -1.5
      vertex -10 -28.8 -1.5
      vertex -10 -32 -1.5
    endloop
  endfacet
  facet normal -1 0 0
    outer loop
      vertex -6.8 -32 -1.5
      vertex -6.8 -28.8 3.52698e-15
      vertex -6.8 -28.8 -1.5
    endloop
  endfacet
  facet normal -1 -0 0
    outer loop
      vertex -6.8 -28.8 3.52698e-15
      vertex -6.8 -32 -1.5
      vertex -6.8 -32 3.91887e-15
    endloop
  endfacet
  facet normal 0 -1 0
    outer loop
      vertex -10 -28.8 -1.5
      vertex -6.8 -28.8 3.52698e-15
      vertex -10 -28.8 3.52698e-15
    endloop
  endfacet
  facet normal 0 -1 -0
    outer loop
      vertex -6.8 -28.8 3.52698e-15
      vertex -10 -28.8 -1.5
      vertex -6.8 -28.8 -1.5
    endloop
  endfacet
  facet normal 0 1 -0
    outer loop
      vertex -6.8 -32 -1.5
      vertex -10 -32 3.91887e-15
      vertex -6.8 -32 3.91887e-15
    endloop
  endfacet
  facet normal 0 1 0
    outer loop
      vertex -10 -32 3.91887e-15
      vertex -6.8 -32 -1.5
      vertex -10 -32 -1.5
    endloop
  endfacet
  facet normal 1 0 0
    outer loop
      vertex -1.6 -19.4 2.37581e-15
      vertex -1.6 -16.2 -1.5
      vertex -1.6 -16.2 1.98393e-15
    endloop
  endfacet
  facet normal 1 0 0
    outer loop
      vertex -1.6 -16.2 -1.5
      vertex -1.6 -19.4 2.37581e-15
      vertex -1.6 -19.4 -1.5
    endloop
  endfacet
  facet normal -0 0 1
    outer loop
      vertex -1.6 -16.2 -1.5
      vertex 1.6 -19.4 -1.5
      vertex 1.6 -16.2 -1.5
    endloop
  endfacet
  facet normal 0 0 1
    outer loop
      vertex 1.6 -19.4 -1.5
      vertex -1.6 -16.2 -1.5
      vertex -1.6 -19.4 -1.5
    endloop
  endfacet
  facet normal -1 0 0
    outer loop
      vertex 1.6 -19.4 -1.5
      vertex 1.6 -16.2 1.98393e-15
      vertex 1.6 -16.2 -1.5
    endloop
  endfacet
  facet normal -1 -0 0
    outer loop
      vertex 1.6 -16.2 1.98393e-15
      vertex 1.6 -19.4 -1.5
      vertex 1.6 -19.4 2.37581e-15
    endloop
  endfacet
  facet normal 0 1 -0
    outer loop
      vertex 1.6 -19.4 -1.5
      vertex -1.6 -19.4 2.37581e-15
      vertex 1.6 -19.4 2.37581e-15
    endloop
  endfacet
  facet normal 0 1 0
    outer loop
      vertex -1.6 -19.4 2.37581e-15
      vertex 1.6 -19.4 -1.5
      vertex -1.6 -19.4 -1.5
    endloop
  endfacet
  facet normal 0 -1 0
    outer loop
      vertex -1.6 -16.2 -1.5
      vertex 1.6 -16.2 1.98393e-15
      vertex -1.6 -16.2 1.98393e-15
    endloop
  endfacet
  facet normal 0 -1 -0
    outer loop
      vertex 1.6 -16.2 1.98393e-15
      vertex -1.6 -16.2 -1.5
      vertex 1.6 -16.2 -1.5
    endloop
  endfacet
  facet normal 1 0 0
    outer loop
      vertex 2.6 -19.4 2.37581e-15
      vertex 2.6 -16.2 -1.5
      vertex 2.6 -16.2 1.98393e-15
    endloop
  endfacet
  facet normal 1 0 0
    outer loop
      vertex 2.6 -16.2 -1.5
      vertex 2.6 -19.4 2.37581e-15
      vertex 2.6 -19.4 -1.5
    endloop
  endfacet
  facet normal -0 0 1
    outer loop
      vertex 2.6 -16.2 -1.5
      vertex 5.8 -19.4 -1.5
      vertex 5.8 -16.2 -1.5
    endloop
  endfacet
  facet normal 0 0 1
    outer loop
      vertex 5.8 -19.4 -1.5
      vertex 2.6 -16.2 -1.5
      vertex 2.6 -19.4 -1.5
    endloop
  endfacet
  facet normal -1 0 0
    outer loop
      vertex 5.8 -19.4 -1.5
      vertex 5.8 -16.2 1.98393e-15
      vertex 5.8 -16.2 -1.5
    endloop
  endfacet
  facet normal -1 -0 0
    outer loop
      vertex 5.8 -16.2 1.98393e-15
      vertex 5.8 -19.4 -1.5
      vertex 5.8 -19.4 2.37581e-15
    endloop
  endfacet
  facet normal 0 1 -0
    outer loop
      vertex 5.8 -19.4 -1.5
      vertex 2.6 -19.4 2.37581e-15
      vertex 5.8 -19.4 2.37581e-15
    endloop
  endfacet
  facet normal 0 1 0
    outer loop
      vertex 2.6 -19.4 2.37581e-15
      vertex 5.8 -19.4 -1.5
      vertex 2.6 -19.4 -1.5
    endloop
  endfacet
  facet normal 0 -1 0
    outer loop
      vertex 2.6 -16.2 -1.5
      vertex 5.8 -16.2 1.98393e-15
      vertex 2.6 -16.2 1.98393e-15
    endloop
  endfacet
  facet normal 0 -1 -0
    outer loop
      vertex 5.8 -16.2 1.98393e-15
      vertex 2.6 -16.2 -1.5
      vertex 5.8 -16.2 -1.5
    endloop
  endfacet
  facet normal 1 0 0
    outer loop
      vertex 6.8 -19.4 2.37581e-15
      vertex 6.8 -16.2 -1.5
      vertex 6.8 -16.2 1.98393e-15
    endloop
  endfacet
  facet normal 1 0 0
    outer loop
      vertex 6.8 -16.2 -1.5
      vertex 6.8 -19.4 2.37581e-15
      vertex 6.8 -19.4 -1.5
    endloop
  endfacet
  facet normal -0 0 1
    outer loop
      vertex 6.8 -16.2 -1.5
      vertex 10 -19.4 -1.5
      vertex 10 -16.2 -1.5
    endloop
  endfacet
  facet normal 0 0 1
    outer loop
      vertex 10 -19.4 -1.5
      vertex 6.8 -16.2 -1.5
      vertex 6.8 -19.4 -1.5
    endloop
  endfacet
  facet normal -1 0 0
    outer loop
      vertex 10 -19.4 -1.5
      vertex 10 -16.2 1.98393e-15
      vertex 10 -16.2 -1.5
    endloop
  endfacet
  facet normal -1 -0 0
    outer loop
      vertex 10 -16.2 1.98393e-15
      vertex 10 -19.4 -1.5
      vertex 10 -19.4 2.37581e-15
    endloop
  endfacet
  facet normal 0 1 -0
    outer loop
      vertex 10 -19.4 -1.5
      vertex 6.8 -19.4 2.37581e-15
      vertex 10 -19.4 2.37581e-15
    endloop
  endfacet
  facet normal 0 1 0
    outer loop
      vertex 6.8 -19.4 2.37581e-15
      vertex 10 -19.4 -1.5
      vertex 6.8 -19.4 -1.5
    endloop
  endfacet
  facet normal 0 -1 0
    outer loop
      vertex 6.8 -16.2 -1.5
      vertex 10 -16.2 1.98393e-15
      vertex 6.8 -16.2 1.98393e-15
    endloop
  endfacet
  facet normal 0 -1 -0
    outer loop
      vertex 10 -16.2 1.98393e-15
      vertex 6.8 -16.2 -1.5
      vertex 10 -16.2 -1.5
    endloop
  endfacet
  facet normal 1 0 0
    outer loop
      vertex -5.8 -19.4 2.37581e-15
      vertex -5.8 -16.2 -1.5
      vertex -5.8 -16.2 1.98393e-15
    endloop
  endfacet
  facet normal 1 0 0
    outer loop
      vertex -5.8 -16.2 -1.5
      vertex -5.8 -19.4 2.37581e-15
      vertex -5.8 -19.4 -1.5
    endloop
  endfacet
  facet normal -0 0 1
    outer loop
      vertex -5.8 -16.2 -1.5
      vertex -2.6 -19.4 -1.5
      vertex -2.6 -16.2 -1.5
    endloop
  endfacet
  facet normal 0 0 1
    outer loop
      vertex -2.6 -19.4 -1.5
      vertex -5.8 -16.2 -1.5
      vertex -5.8 -19.4 -1.5
    endloop
  endfacet
  facet normal -1 0 0
    outer loop
      vertex -2.6 -19.4 -1.5
      vertex -2.6 -16.2 1.98393e-15
      vertex -2.6 -16.2 -1.5
    endloop
  endfacet
  facet normal -1 -0 0
    outer loop
      vertex -2.6 -16.2 1.98393e-15
      vertex -2.6 -19.4 -1.5
      vertex -2.6 -19.4 2.37581e-15
    endloop
  endfacet
  facet normal 0 -1 0
    outer loop
      vertex -5.8 -16.2 -1.5
      vertex -2.6 -16.2 1.98393e-15
      vertex -5.8 -16.2 1.98393e-15
    endloop
  endfacet
  facet normal 0 -1 -0
    outer loop
      vertex -2.6 -16.2 1.98393e-15
      vertex -5.8 -16.2 -1.5
      vertex -2.6 -16.2 -1.5
    endloop
  endfacet
  facet normal 0 1 -0
    outer loop
      vertex -2.6 -19.4 -1.5
      vertex -5.8 -19.4 2.37581e-15
      vertex -2.6 -19.4 2.37581e-15
    endloop
  endfacet
  facet normal 0 1 0
    outer loop
      vertex -5.8 -19.4 2.37581e-15
      vertex -2.6 -19.4 -1.5
      vertex -5.8 -19.4 -1.5
    endloop
  endfacet
  facet normal 1 0 0
    outer loop
      vertex -10 -19.4 2.37581e-15
      vertex -10 -16.2 -1.5
      vertex -10 -16.2 1.98393e-15
    endloop
  endfacet
  facet normal 1 0 0
    outer loop
      vertex -10 -16.2 -1.5
      vertex -10 -19.4 2.37581e-15
      vertex -10 -19.4 -1.5
    endloop
  endfacet
  facet normal -0 0 1
    outer loop
      vertex -10 -16.2 -1.5
      vertex -6.8 -19.4 -1.5
      vertex -6.8 -16.2 -1.5
    endloop
  endfacet
  facet normal 0 0 1
    outer loop
      vertex -6.8 -19.4 -1.5
      vertex -10 -16.2 -1.5
      vertex -10 -19.4 -1.5
    endloop
  endfacet
  facet normal -1 0 0
    outer loop
      vertex -6.8 -19.4 -1.5
      vertex -6.8 -16.2 1.98393e-15
      vertex -6.8 -16.2 -1.5
    endloop
  endfacet
  facet normal -1 -0 0
    outer loop
      vertex -6.8 -16.2 1.98393e-15
      vertex -6.8 -19.4 -1.5
      vertex -6.8 -19.4 2.37581e-15
    endloop
  endfacet
  facet normal 0 -1 0
    outer loop
      vertex -10 -16.2 -1.5
      vertex -6.8 -16.2 1.98393e-15
      vertex -10 -16.2 1.98393e-15
    endloop
  endfacet
  facet normal 0 -1 -0
    outer loop
      vertex -6.8 -16.2 1.98393e-15
      vertex -10 -16.2 -1.5
      vertex -6.8 -16.2 -1.5
    endloop
  endfacet
  facet normal 0 1 -0
    outer loop
      vertex -6.8 -19.4 -1.5
      vertex -10 -19.4 2.37581e-15
      vertex -6.8 -19.4 2.37581e-15
    endloop
  endfacet
  facet normal 0 1 0
    outer loop
      vertex -10 -19.4 2.37581e-15
      vertex -6.8 -19.4 -1.5
      vertex -10 -19.4 -1.5
    endloop
  endfacet
  facet normal 1 0 0
    outer loop
      vertex -1.6 -15.2 1.86146e-15
      vertex -1.6 -12 -1.5
      vertex -1.6 -12 1.46958e-15
    endloop
  endfacet
  facet normal 1 0 0
    outer loop
      vertex -1.6 -12 -1.5
      vertex -1.6 -15.2 1.86146e-15
      vertex -1.6 -15.2 -1.5
    endloop
  endfacet
  facet normal -0 0 1
    outer loop
      vertex -1.6 -12 -1.5
      vertex 1.6 -15.2 -1.5
      vertex 1.6 -12 -1.5
    endloop
  endfacet
  facet normal 0 0 1
    outer loop
      vertex 1.6 -15.2 -1.5
      vertex -1.6 -12 -1.5
      vertex -1.6 -15.2 -1.5
    endloop
  endfacet
  facet normal -1 0 0
    outer loop
      vertex 1.6 -15.2 -1.5
      vertex 1.6 -12 1.46958e-15
      vertex 1.6 -12 -1.5
    endloop
  endfacet
  facet normal -1 -0 0
    outer loop
      vertex 1.6 -12 1.46958e-15
      vertex 1.6 -15.2 -1.5
      vertex 1.6 -15.2 1.86146e-15
    endloop
  endfacet
  facet normal 0 1 -0
    outer loop
      vertex 1.6 -15.2 -1.5
      vertex -1.6 -15.2 1.86146e-15
      vertex 1.6 -15.2 1.86146e-15
    endloop
  endfacet
  facet normal 0 1 0
    outer loop
      vertex -1.6 -15.2 1.86146e-15
      vertex 1.6 -15.2 -1.5
      vertex -1.6 -15.2 -1.5
    endloop
  endfacet
  facet normal 0 -1 0
    outer loop
      vertex -1.6 -12 -1.5
      vertex 1.6 -12 1.46958e-15
      vertex -1.6 -12 1.46958e-15
    endloop
  endfacet
  facet normal 0 -1 -0
    outer loop
      vertex 1.6 -12 1.46958e-15
      vertex -1.6 -12 -1.5
      vertex 1.6 -12 -1.5
    endloop
  endfacet
  facet normal 1 0 0
    outer loop
      vertex 2.6 -15.2 1.86146e-15
      vertex 2.6 -12 -1.5
      vertex 2.6 -12 1.46958e-15
    endloop
  endfacet
  facet normal 1 0 0
    outer loop
      vertex 2.6 -12 -1.5
      vertex 2.6 -15.2 1.86146e-15
      vertex 2.6 -15.2 -1.5
    endloop
  endfacet
  facet normal -0 0 1
    outer loop
      vertex 2.6 -12 -1.5
      vertex 5.8 -15.2 -1.5
      vertex 5.8 -12 -1.5
    endloop
  endfacet
  facet normal 0 0 1
    outer loop
      vertex 5.8 -15.2 -1.5
      vertex 2.6 -12 -1.5
      vertex 2.6 -15.2 -1.5
    endloop
  endfacet
  facet normal -1 0 0
    outer loop
      vertex 5.8 -15.2 -1.5
      vertex 5.8 -12 1.46958e-15
      vertex 5.8 -12 -1.5
    endloop
  endfacet
  facet normal -1 -0 0
    outer loop
      vertex 5.8 -12 1.46958e-15
      vertex 5.8 -15.2 -1.5
      vertex 5.8 -15.2 1.86146e-15
    endloop
  endfacet
  facet normal 0 1 -0
    outer loop
      vertex 5.8 -15.2 -1.5
      vertex 2.6 -15.2 1.86146e-15
      vertex 5.8 -15.2 1.86146e-15
    endloop
  endfacet
  facet normal 0 1 0
    outer loop
      vertex 2.6 -15.2 1.86146e-15
      vertex 5.8 -15.2 -1.5
      vertex 2.6 -15.2 -1.5
    endloop
  endfacet
  facet normal 0 -1 0
    outer loop
      vertex 2.6 -12 -1.5
      vertex 5.8 -12 1.46958e-15
      vertex 2.6 -12 1.46958e-15
    endloop
  endfacet
  facet normal 0 -1 -0
    outer loop
      vertex 5.8 -12 1.46958e-15
      vertex 2.6 -12 -1.5
      vertex 5.8 -12 -1.5
    endloop
  endfacet
  facet normal 1 0 0
    outer loop
      vertex 6.8 -15.2 1.86146e-15
      vertex 6.8 -12 -1.5
      vertex 6.8 -12 1.46958e-15
    endloop
  endfacet
  facet normal 1 0 0
    outer loop
      vertex 6.8 -12 -1.5
      vertex 6.8 -15.2 1.86146e-15
      vertex 6.8 -15.2 -1.5
    endloop
  endfacet
  facet normal -0 0 1
    outer loop
      vertex 6.8 -12 -1.5
      vertex 10 -15.2 -1.5
      vertex 10 -12 -1.5
    endloop
  endfacet
  facet normal 0 0 1
    outer loop
      vertex 10 -15.2 -1.5
      vertex 6.8 -12 -1.5
      vertex 6.8 -15.2 -1.5
    endloop
  endfacet
  facet normal -1 0 0
    outer loop
      vertex 10 -15.2 -1.5
      vertex 10 -12 1.46958e-15
      vertex 10 -12 -1.5
    endloop
  endfacet
  facet normal -1 -0 0
    outer loop
      vertex 10 -12 1.46958e-15
      vertex 10 -15.2 -1.5
      vertex 10 -15.2 1.86146e-15
    endloop
  endfacet
  facet normal 0 1 -0
    outer loop
      vertex 10 -15.2 -1.5
      vertex 6.8 -15.2 1.86146e-15
      vertex 10 -15.2 1.86146e-15
    endloop
  endfacet
  facet normal 0 1 0
    outer loop
      vertex 6.8 -15.2 1.86146e-15
      vertex 10 -15.2 -1.5
      vertex 6.8 -15.2 -1.5
    endloop
  endfacet
  facet normal 0 -1 0
    outer loop
      vertex 6.8 -12 -1.5
      vertex 10 -12 1.46958e-15
      vertex 6.8 -12 1.46958e-15
    endloop
  endfacet
  facet normal 0 -1 -0
    outer loop
      vertex 10 -12 1.46958e-15
      vertex 6.8 -12 -1.5
      vertex 10 -12 -1.5
    endloop
  endfacet
  facet normal 1 0 0
    outer loop
      vertex -5.8 -15.2 1.86146e-15
      vertex -5.8 -12 -1.5
      vertex -5.8 -12 1.46958e-15
    endloop
  endfacet
  facet normal 1 0 0
    outer loop
      vertex -5.8 -12 -1.5
      vertex -5.8 -15.2 1.86146e-15
      vertex -5.8 -15.2 -1.5
    endloop
  endfacet
  facet normal -0 0 1
    outer loop
      vertex -5.8 -12 -1.5
      vertex -2.6 -15.2 -1.5
      vertex -2.6 -12 -1.5
    endloop
  endfacet
  facet normal 0 0 1
    outer loop
      vertex -2.6 -15.2 -1.5
      vertex -5.8 -12 -1.5
      vertex -5.8 -15.2 -1.5
    endloop
  endfacet
  facet normal -1 0 0
    outer loop
      vertex -2.6 -15.2 -1.5
      vertex -2.6 -12 1.46958e-15
      vertex -2.6 -12 -1.5
    endloop
  endfacet
  facet normal -1 -0 0
    outer loop
      vertex -2.6 -12 1.46958e-15
      vertex -2.6 -15.2 -1.5
      vertex -2.6 -15.2 1.86146e-15
    endloop
  endfacet
  facet normal 0 -1 0
    outer loop
      vertex -5.8 -12 -1.5
      vertex -2.6 -12 1.46958e-15
      vertex -5.8 -12 1.46958e-15
    endloop
  endfacet
  facet normal 0 -1 -0
    outer loop
      vertex -2.6 -12 1.46958e-15
      vertex -5.8 -12 -1.5
      vertex -2.6 -12 -1.5
    endloop
  endfacet
  facet normal 0 1 -0
    outer loop
      vertex -2.6 -15.2 -1.5
      vertex -5.8 -15.2 1.86146e-15
      vertex -2.6 -15.2 1.86146e-15
    endloop
  endfacet
  facet normal 0 1 0
    outer loop
      vertex -5.8 -15.2 1.86146e-15
      vertex -2.6 -15.2 -1.5
      vertex -5.8 -15.2 -1.5
    endloop
  endfacet
  facet normal 1 0 0
    outer loop
      vertex -10 -15.2 1.86146e-15
      vertex -10 -12 -1.5
      vertex -10 -12 1.46958e-15
    endloop
  endfacet
  facet normal 1 0 0
    outer loop
      vertex -10 -12 -1.5
      vertex -10 -15.2 1.86146e-15
      vertex -10 -15.2 -1.5
    endloop
  endfacet
  facet normal -0 0 1
    outer loop
      vertex -10 -12 -1.5
      vertex -6.8 -15.2 -1.5
      vertex -6.8 -12 -1.5
    endloop
  endfacet
  facet normal 0 0 1
    outer loop
      vertex -6.8 -15.2 -1.5
      vertex -10 -12 -1.5
      vertex -10 -15.2 -1.5
    endloop
  endfacet
  facet normal -1 0 0
    outer loop
      vertex -6.8 -15.2 -1.5
      vertex -6.8 -12 1.46958e-15
      vertex -6.8 -12 -1.5
    endloop
  endfacet
  facet normal -1 -0 0
    outer loop
      vertex -6.8 -12 1.46958e-15
      vertex -6.8 -15.2 -1.5
      vertex -6.8 -15.2 1.86146e-15
    endloop
  endfacet
  facet normal 0 -1 0
    outer loop
      vertex -10 -12 -1.5
      vertex -6.8 -12 1.46958e-15
      vertex -10 -12 1.46958e-15
    endloop
  endfacet
  facet normal 0 -1 -0
    outer loop
      vertex -6.8 -12 1.46958e-15
      vertex -10 -12 -1.5
      vertex -6.8 -12 -1.5
    endloop
  endfacet
  facet normal 0 1 -0
    outer loop
      vertex -6.8 -15.2 -1.5
      vertex -10 -15.2 1.86146e-15
      vertex -6.8 -15.2 1.86146e-15
    endloop
  endfacet
  facet normal 0 1 0
    outer loop
      vertex -10 -15.2 1.86146e-15
      vertex -6.8 -15.2 -1.5
      vertex -10 -15.2 -1.5
    endloop
  endfacet
  facet normal 1 0 0
    outer loop
      vertex -22.5 -0.0999994 1.22464e-17
      vertex -22.5 2.4 3.7
      vertex -22.5 -0.0999994 3.7
    endloop
  endfacet
  facet normal 1 0 0
    outer loop
      vertex -22.5 2.4 3.7
      vertex -22.5 -0.0999994 1.22464e-17
      vertex -22.5 2.4 -2.5
    endloop
  endfacet
  facet normal 1 0 0
    outer loop
      vertex -22.5 -1.25 -2.5
      vertex -22.5 -0.0999994 1.22464e-17
      vertex -22.5 -1.25 1.53081e-16
    endloop
  endfacet
  facet normal 1 0 0
    outer loop
      vertex -22.5 -0.0999994 1.22464e-17
      vertex -22.5 -1.25 -2.5
      vertex -22.5 2.4 -2.5
    endloop
  endfacet
  facet normal -1 0 0
    outer loop
      vertex 22.5 2.4 -2.5
      vertex 22.5 -0.0999994 1.22464e-17
      vertex 22.5 2.4 3.7
    endloop
  endfacet
  facet normal -1 0 0
    outer loop
      vertex 22.5 -1.25 -2.5
      vertex 22.5 -0.0999994 1.22464e-17
      vertex 22.5 2.4 -2.5
    endloop
  endfacet
  facet normal -1 -0 0
    outer loop
      vertex 22.5 -0.0999994 1.22464e-17
      vertex 22.5 -1.25 -2.5
      vertex 22.5 -1.25 1.53081e-16
    endloop
  endfacet
  facet normal -1 -0 0
    outer loop
      vertex 22.5 2.4 3.7
      vertex 22.5 -0.0999994 1.22464e-17
      vertex 22.5 -0.0999994 3.7
    endloop
  endfacet
  facet normal 0 1 -0
    outer loop
      vertex 22.5 -1.25 -2.5
      vertex -22.5 -1.25 1.53081e-16
      vertex 22.5 -1.25 1.53081e-16
    endloop
  endfacet
  facet normal 0 1 0
    outer loop
      vertex -22.5 -1.25 1.53081e-16
      vertex 22.5 -1.25 -2.5
      vertex -22.5 -1.25 -2.5
    endloop
  endfacet
  facet normal 1 0 0
    outer loop
      vertex 16 -25 3.06162e-15
      vertex 16 -17 -2.5
      vertex 16 -17 2.0819e-15
    endloop
  endfacet
  facet normal 1 0 0
    outer loop
      vertex 16 -17 -2.5
      vertex 16 -25 3.06162e-15
      vertex 16 -25 -2.5
    endloop
  endfacet
  facet normal -1 0 0
    outer loop
      vertex 24 -25 -2.5
      vertex 24 -17 2.0819e-15
      vertex 24 -17 -2.5
    endloop
  endfacet
  facet normal -1 -0 0
    outer loop
      vertex 24 -17 2.0819e-15
      vertex 24 -25 -2.5
      vertex 24 -25 3.06162e-15
    endloop
  endfacet
  facet normal 0 -1 0
    outer loop
      vertex 16 -17 -2.5
      vertex 24 -17 2.0819e-15
      vertex 16 -17 2.0819e-15
    endloop
  endfacet
  facet normal 0 -1 -0
    outer loop
      vertex 24 -17 2.0819e-15
      vertex 16 -17 -2.5
      vertex 24 -17 -2.5
    endloop
  endfacet
  facet normal 0 1 -0
    outer loop
      vertex 24 -25 -2.5
      vertex 16 -25 3.06162e-15
      vertex 24 -25 3.06162e-15
    endloop
  endfacet
  facet normal 0 1 0
    outer loop
      vertex 16 -25 3.06162e-15
      vertex 24 -25 -2.5
      vertex 16 -25 -2.5
    endloop
  endfacet
  facet normal 1 0 0
    outer loop
      vertex -24 -25 3.06162e-15
      vertex -24 -17 -2.5
      vertex -24 -17 2.0819e-15
    endloop
  endfacet
  facet normal 1 0 0
    outer loop
      vertex -24 -17 -2.5
      vertex -24 -25 3.06162e-15
      vertex -24 -25 -2.5
    endloop
  endfacet
  facet normal 0 1 -0
    outer loop
      vertex -16 -25 -2.5
      vertex -24 -25 3.06162e-15
      vertex -16 -25 3.06162e-15
    endloop
  endfacet
  facet normal 0 1 0
    outer loop
      vertex -24 -25 3.06162e-15
      vertex -16 -25 -2.5
      vertex -24 -25 -2.5
    endloop
  endfacet
  facet normal -1 0 0
    outer loop
      vertex -16 -25 -2.5
      vertex -16 -17 2.0819e-15
      vertex -16 -17 -2.5
    endloop
  endfacet
  facet normal -1 -0 0
    outer loop
      vertex -16 -17 2.0819e-15
      vertex -16 -25 -2.5
      vertex -16 -25 3.06162e-15
    endloop
  endfacet
  facet normal 0 -1 0
    outer loop
      vertex -24 -17 -2.5
      vertex -16 -17 2.0819e-15
      vertex -24 -17 2.0819e-15
    endloop
  endfacet
  facet normal 0 -1 -0
    outer loop
      vertex -16 -17 2.0819e-15
      vertex -24 -17 -2.5
      vertex -16 -17 -2.5
    endloop
  endfacet
endsolid OpenSCAD_Model
